<?xml version="1.0" encoding="utf-8"?>
<!-- Generator: Adobe Illustrator 15.0.0, SVG Export Plug-In . SVG Version: 6.00 Build 0)  -->
<!DOCTYPE svg PUBLIC "-//W3C//DTD SVG 1.1//EN" "http://www.w3.org/Graphics/SVG/1.1/DTD/svg11.dtd">
<svg version="1.1" id="Layer_1" xmlns="http://www.w3.org/2000/svg" xmlns:xlink="http://www.w3.org/1999/xlink" x="0px" y="0px"
	 width="612px" height="597.767px" viewBox="-354 340.417 612 597.767" enable-background="new -354 340.417 612 597.767"
	 xml:space="preserve">
<path d="M-24.439,571.391v136.512c0,11.78-9.008,20.789-20.789,20.789h-272.33c-11.78,0-20.789-9.009-20.789-20.789V571.391
	c0-11.78,9.008-20.788,20.789-20.788h272.33C-34.141,550.603-24.439,559.61-24.439,571.391z"/>
<path d="M118.308,362.119v136.512c0,11.78-9.008,20.789-20.788,20.789h-415.771c-11.78,0-20.788-9.009-20.788-20.789V362.119
	c0-11.78,9.008-20.789,20.788-20.789H97.52C109.3,341.331,118.308,350.339,118.308,362.119z"/>
<path d="M243.04,779.97V916.48c0,11.78-9.008,20.788-20.788,20.788h-540.503c-11.78,0-20.788-9.008-20.788-20.788V779.97
	c0-11.781,9.008-20.79,20.788-20.79h540.503C234.032,759.18,243.04,768.882,243.04,779.97z"/>
</svg>
