<?xml version="1.0" encoding="utf-8"?>
<!-- Generator: Adobe Illustrator 26.5.0, SVG Export Plug-In . SVG Version: 6.00 Build 0)  -->
<svg version="1.1" id="Layer_1" xmlns="http://www.w3.org/2000/svg" xmlns:xlink="http://www.w3.org/1999/xlink" x="0px" y="0px"
	 viewBox="0 0 173.1 185.6" style="enable-background:new 0 0 173.1 185.6;" xml:space="preserve">
<style type="text/css">
	.st0{fill:#2B90D9;}
	.st1{fill:#FFFFFF;}
</style>
<path class="st0" d="M173.1,60.9c0-40.3-26.4-52.1-26.4-52.1C133.4,2.8,110.6,0.2,86.9,0h-0.6C62.6,0.2,39.7,2.8,26.4,8.9
	c0,0-26.4,11.8-26.4,52.1c0,9.2-0.2,20.2,0.1,31.9c1,39.4,7.2,78.2,43.6,87.8c16.8,4.4,31.2,5.4,42.8,4.7c21-1.2,32.9-7.5,32.9-7.5
	l-0.7-15.3c0,0-15,4.7-31.9,4.2c-16.7-0.6-34.4-1.8-37.1-22.4c-0.2-1.8-0.4-3.7-0.4-5.8c0,0,16.4,4,37.3,5
	c12.7,0.6,24.7-0.7,36.8-2.2c23.3-2.8,43.5-17.1,46-30.2C173.5,90.6,173.1,60.9,173.1,60.9z"/>
<path class="st1" d="M142,64.1v48.8h-19.3V65.5c0-10-4.2-15-12.6-15c-9.3,0-13.9,6-13.9,17.9v25.9H77V68.3
	c0-11.9-4.7-17.9-13.9-17.9c-8.4,0-12.6,5.1-12.6,15v47.3H31.1V64.1c0-10,2.5-17.9,7.6-23.7c5.3-5.9,12.1-8.9,20.7-8.9
	c9.9,0,17.4,3.8,22.3,11.4l4.8,8.1l4.8-8.1c4.9-7.6,12.4-11.4,22.3-11.4c8.5,0,15.4,3,20.7,8.9C139.5,46.2,142,54.1,142,64.1"/>
</svg>
