<?xml version="1.0" encoding="utf-8"?>
<!-- Generator: Adobe Illustrator 19.1.0, SVG Export Plug-In . SVG Version: 6.00 Build 0)  -->
<svg version="1.1" id="Layer_1" xmlns="http://www.w3.org/2000/svg" xmlns:xlink="http://www.w3.org/1999/xlink" x="0px" y="0px"
	 viewBox="-395 282.3 32 32" style="enable-background:new -395 282.3 32 32;" xml:space="preserve">
<g id="icomoon-ignore">
</g>
<path d="M-373.4,307.9c0,0,2.6-2.4,2.6-7.3c0-3.9-2-6.3-2.8-7.1l2.2-1.8l1.5-1.2l-1-1.2l1.4-1.1l1,1.2l1.5-1.2l-3.2-3.8l-1.5,1.2
	l1,1.2l-1.4,1.1l-1-1.2l-1.5,1.2l-10.9,9c-0.4,0.4-0.7,0.9-0.8,1.4l-1.4-0.3l-0.2,0.7l1.6,0.4c0,0.4,0.1,0.7,0.3,1l-1.2,1l0.5,0.6
	l1.2-1c0.3,0.3,0.6,0.4,1,0.5l0.1,1.6l0.8,0l-0.1-1.5c0.5,0,1.1-0.2,1.5-0.6l3.9-3.2c0.2,0.7,1,1.9,3.5,1.6c0,0.5,0.9,3.6-1.3,5.6
	h-11.4v1.5h3.3v1.6h-4.6l-1.7,3.9h22.2l-1.5-3.9L-373.4,307.9L-373.4,307.9z"/>
</svg>
