<?xml version="1.0" encoding="utf-8"?>
<!-- Generator: Adobe Illustrator 19.1.0, SVG Export Plug-In . SVG Version: 6.00 Build 0)  -->
<svg version="1.1" id="Layer_1" xmlns="http://www.w3.org/2000/svg" xmlns:xlink="http://www.w3.org/1999/xlink" x="0px" y="0px"
	 viewBox="-343.5 262.8 65 45" style="enable-background:new -343.5 262.8 65 45;" xml:space="preserve">
<path d="M-289.5,262.8h-43c-6.1,0-11,4.9-11,11v23c0,6.1,4.9,11,11,11h43c6.1,0,11-4.9,11-11v-23
	C-278.5,267.7-283.4,262.8-289.5,262.8z M-298.3,285.7l-19.5,10c-0.2,0.1-0.5,0-0.7-0.2c0-0.1-0.1-0.1-0.1-0.2v-20
	c0-0.3,0.2-0.5,0.5-0.5c0.1,0,0.2,0,0.2,0.1l19.5,10c0.2,0.1,0.3,0.4,0.2,0.7C-298.1,285.6-298.2,285.7-298.3,285.7L-298.3,285.7z"
	/>
</svg>
