<?xml version="1.0" encoding="utf-8"?>
<!-- Generator: Adobe Illustrator 19.1.0, SVG Export Plug-In . SVG Version: 6.00 Build 0)  -->
<svg version="1.1" id="Layer_1" xmlns="http://www.w3.org/2000/svg" xmlns:xlink="http://www.w3.org/1999/xlink" x="0px" y="0px"
	 viewBox="0 0 57.7 57.7" style="enable-background:new 0 0 57.7 57.7;" xml:space="preserve">
<style type="text/css">
	.st0{fill:#231F20;}
</style>
<path class="st0" d="M28.8,57.7C12.9,57.7,0,44.7,0,28.8S12.9,0,28.8,0c15.9,0,28.8,12.9,28.8,28.8S44.7,57.7,28.8,57.7z M28.8,1
	C13.5,1,1,13.5,1,28.8c0,15.3,12.5,27.8,27.8,27.8s27.8-12.5,27.8-27.8C56.7,13.5,44.2,1,28.8,1z"/>
<path class="st0" d="M43.6,32.1L43.6,32.1c0,0-4.2-1.8-1.5-7.1l0,0c1-1.1,1.6-2.5,1.6-4.1c0-3.3-2.7-6-6-6c-1.5,0-2.9,0.6-4,1.5
	c-1,0.7-3.7,2.2-5.9-0.6l0,0c-0.9-1.8-2.8-3.1-4.9-3.1c-3.1,0-5.5,2.5-5.5,5.5c0,0.8,0.2,1.6,0.5,2.2l0,0c0,0,1.5,4.4-2.9,6.3
	c-0.1,0-0.1,0.1-0.2,0.1c-3.2,0.5-5.6,3.3-5.6,6.6c0,3.7,3,6.7,6.7,6.7c1.3,0,2.5-0.4,3.6-1c0,0,0.1,0.1,0.1,0.1s5.8-2.7,8.1,2.4
	l0.1,0c0.5,1.5,1.9,2.6,3.6,2.6c1.2,0,2.3-0.5,2.9-1.4l0,0c0,0,2.4-2,6.5-1.9l0,0c0,0,0.1,0,0.1,0c2.7,0,4.9-2.2,4.9-4.9
	C45.7,34.4,44.8,33,43.6,32.1z M25.5,25.8c-1.1,0-2-0.9-2-2s0.9-2,2-2s2,0.9,2,2S26.6,25.8,25.5,25.8z M31.8,35.2c-2.2,0-4-1.8-4-4
	c0-2.2,1.8-4,4-4c2.2,0,4,1.8,4,4C35.8,33.4,34,35.2,31.8,35.2z"/>
<circle class="st0" cx="25.5" cy="23.8" r="1.2"/>
</svg>
