<?xml version="1.0" encoding="utf-8"?>
<!-- Generator: Adobe Illustrator 19.1.0, SVG Export Plug-In . SVG Version: 6.00 Build 0)  -->
<svg version="1.1" id="Layer_1" xmlns="http://www.w3.org/2000/svg" xmlns:xlink="http://www.w3.org/1999/xlink" x="0px" y="0px"
	 viewBox="0 0 57.7 57.7" style="enable-background:new 0 0 57.7 57.7;" xml:space="preserve">
<style type="text/css">
	.st0{fill:#231F20;}
</style>
<path class="st0" d="M28.8,57.7C12.9,57.7,0,44.7,0,28.8S12.9,0,28.8,0c15.9,0,28.8,12.9,28.8,28.8S44.7,57.7,28.8,57.7z M28.8,1
	C13.5,1,1,13.5,1,28.8c0,15.3,12.5,27.8,27.8,27.8s27.8-12.5,27.8-27.8C56.7,13.5,44.2,1,28.8,1z"/>
<path class="st0" d="M48.2,17.8c0,0-1,2.9-9.4,3.8c-8.4,0.9-9.8,8.7-8.7,11.5c0,0,2.6-2.3,6.6-3.6s8-3.3,9.8-6.4
	c0,0-1.4,5.1-9.5,8.1c-8,3-11.3,10.4-11.3,10.4s-3.3-4.5-5.4-5.7c-2.1-1.3-8.5-5.4-9.1-9.9c0,0,2.2,3.9,4.8,5.3s6.3,3.3,8.8,6.4
	c0,0,1.2-2.8,0.5-5.9c-0.7-3.1-3.1-5.5-7-6.5c-3.9-1-6.5-2.2-8.2-4.9c0,0-3.9,6.8-0.9,14.8s11.8,6.4,13,5.5c0,0,2.8,1.7,3.3,5.1
	l3.5,0.2c0,0-1.1-6.4,3.4-9.3c0,0,7.8,3.5,12.6-0.9S51.1,23.3,48.2,17.8z"/>
</svg>
