<?xml version="1.0" encoding="utf-8"?>
<!-- Generator: Adobe Illustrator 19.1.0, SVG Export Plug-In . SVG Version: 6.00 Build 0)  -->
<svg version="1.1" id="Layer_1" xmlns="http://www.w3.org/2000/svg" xmlns:xlink="http://www.w3.org/1999/xlink" x="0px" y="0px"
	 viewBox="0 0 337.1 337.1" style="enable-background:new 0 0 337.1 337.1;" xml:space="preserve">
<g>
	<path d="M295.8,247.6c2.1-9.6,3-18.9,2.7-28.8c-1-8-2.4-15.5-5.3-23c-2.8-7.4-7-15.3-12.6-23.2c-8.8-12.3-19.8-23-31.4-32.8
		c0,0-0.2-0.1,0,0c-14.6-11.8-30.4-22.1-47.4-30.3c-10.9-5.3-22.3-9.8-33.8-13.4c-11.5-3.7-23.1-6.5-34.5-8.5
		c-22.8-4.1-44.7-5.1-63.3-3.9c-18.6,1.2-34.1,4.4-44.1,8.7c-2.5,1.1-4.6,2.2-6.4,3.4c-1.7,1.2-3,2.5-3.9,3.6
		c-0.9,1.1-1.6,2.1-1.8,2.8c-0.1,0.4-0.1,0.6-0.1,0.8c0.1,0.2,0.2,0.2,0.2,0.2c0,0-0.1-0.1-0.2-0.2c-0.1-0.2-0.1-0.5,0-0.9
		c0.2-0.8,0.8-1.8,1.6-3c0.8-1.2,2-2.7,3.7-4.1c1.7-1.4,3.8-2.8,6.2-4.2c9.8-5.4,25.2-10.3,44.2-13.4c18.9-3.1,41.5-4.3,65.6-2.4
		c12.1,0.9,24.5,2.7,37,5.3c12.5,2.7,25.1,6.2,37.4,10.7c24.3,8.9,47.3,21.5,67.9,37.3c10,7.7,19.1,16,27.1,25
		c7.9,9,14.5,18.8,19.4,28.6c4.9,9.8,8.3,19.6,10.1,28.5c1.7,7.7,2.3,15.6,2.6,23.4c-0.3,11.8,0.8,27.8-11,34.8
		C311,277.4,292.5,264.2,295.8,247.6z"/>
	<path d="M229.4,247.6c1.8-7.3,2.5-14.5,2.5-22c-0.1-0.6-0.1-1.1-0.2-1.7c-0.3-4.7-1.5-10-3.5-15.7c-2.1-5.7-5.1-11.9-9.4-18.1
		c-6.8-9.7-15.2-18.4-24.2-26c0.1,0.1-0.3-0.2,0.2,0.1c-4.2-3.5-8.5-6.7-12.9-10c-7.6-5.3-15.8-10.3-24.4-14.6
		c-8.6-4.3-17.6-8-26.6-11c-9.1-3-18.3-5.4-27.3-7.1C85.3,118,67.9,117,53,117.7c-14.9,0.7-27.3,3.2-35.3,6.5
		c-2,0.8-3.7,1.7-5.1,2.7c-1.4,0.9-2.4,1.9-3.2,2.8c-0.8,0.9-1.3,1.6-1.5,2.2c-0.1,0.3-0.1,0.5-0.1,0.7c0.1,0.1,0.1,0.2,0.1,0.2
		c0,0-0.1,0-0.1-0.2c-0.1-0.1-0.1-0.4,0-0.7c0.1-0.6,0.6-1.4,1.3-2.4c0.6-1,1.6-2.2,2.9-3.3c1.3-1.2,3-2.3,5-3.4
		c7.8-4.5,20.2-8.5,35.3-11.2c15.2-2.7,33.3-3.9,52.7-2.6c9.7,0.6,19.7,1.9,29.9,4c10.1,2,20.3,4.8,30.3,8.3
		c10,3.5,19.7,7.8,29.1,12.8c9.1,5.1,17.8,10.4,26.2,16.7c8.2,6.1,15.7,12.9,22.3,20.2c6.6,7.3,12,15.3,16.2,23.4
		c4.1,8.1,7,16.2,8.5,23.6c1.5,6.4,2.1,12.9,2.3,19.5c-0.1,11.1,0.5,24.8-10.4,31.5C244.6,277.9,225.9,264.4,229.4,247.6z"/>
	<path d="M161.8,247.6c0.6-2.7,1.1-5.4,1.8-8c0.1-1.1,0.3-2.4,0.4-3.8c0-1.1,0-2.2,0.1-3.3c0-0.4-0.1-0.8-0.1-1.2
		c-0.1-3.2-0.7-6.8-2-10.8c-1.3-4-3.3-8.4-6.2-12.9c-4.7-7.2-10.7-13.6-17.1-19.3c0.1,0.1-0.3-0.2,0.2,0.1c-3.1-2.6-6.2-5.1-9.4-7.6
		c-5.5-4.1-11.5-7.8-17.7-11.2c-6.3-3.3-12.8-6.2-19.5-8.6c-6.7-2.4-13.5-4.3-20.2-5.7c-13.4-2.9-26.4-3.9-37.5-3.6
		C23.4,152,14.1,153.6,8,156c-1.5,0.6-2.8,1.2-3.8,1.9c-1,0.7-1.8,1.4-2.4,2.1c-0.6,0.6-1,1.2-1.2,1.6c-0.2,0.4,0,0.6,0,0.6
		c0,0-0.1,0-0.1-0.1c-0.1-0.1-0.1-0.3,0-0.5c0.1-0.5,0.4-1.1,0.9-1.9c0.5-0.8,1.2-1.7,2.2-2.6c1-0.9,2.2-1.8,3.7-2.7
		c5.9-3.5,15.1-6.7,26.5-8.9c11.4-2.2,25.1-3.4,39.8-2.7c7.4,0.3,15,1.2,22.7,2.6c7.7,1.4,15.5,3.4,23.2,5.9
		c7.7,2.6,15.2,5.7,22.4,9.4c7.1,3.8,13.8,7.7,20.3,12.5c6.4,4.6,12.3,9.7,17.5,15.3c5.2,5.6,9.6,11.9,13,18.2
		c3.4,6.3,5.8,12.8,7,18.7c1.2,5.1,1.8,10.3,2.1,15.5c0,10.3,0.2,21.9-9.7,28.3C177.1,278.6,157.9,264.7,161.8,247.6z"/>
</g>
</svg>
