<?xml version="1.0" encoding="utf-8"?>
<!-- Generator: Adobe Illustrator 19.1.0, SVG Export Plug-In . SVG Version: 6.00 Build 0)  -->
<svg version="1.1" id="Layer_1" xmlns="http://www.w3.org/2000/svg" xmlns:xlink="http://www.w3.org/1999/xlink" x="0px" y="0px"
	 viewBox="0 0 57.7 57.7" style="enable-background:new 0 0 57.7 57.7;" xml:space="preserve">
<style type="text/css">
	.st0{fill:#231F20;}
</style>
<path class="st0" d="M28.8,57.7C12.9,57.7,0,44.7,0,28.8S12.9,0,28.8,0s28.8,12.9,28.8,28.8S44.7,57.7,28.8,57.7z M28.8,1
	C13.5,1,1,13.5,1,28.8s12.5,27.8,27.8,27.8s27.8-12.5,27.8-27.8S44.2,1,28.8,1z"/>
<path class="st0" d="M49.2,42.7L44.9,40l-3.6-6.3c-0.1-0.2-0.2-0.3-0.4-0.4c0-1.3-0.2-2.7-0.5-3.9l1.8,1.2c0.2,0.1,0.4,0.2,0.6,0.2
	c0.1,0,0.1,0,0.2,0l5.2-0.9c0.6-0.1,1-0.7,0.9-1.3c-0.1-0.6-0.7-1-1.3-0.9L43,28.5l-4.2-2.8c-0.5-0.8-1-1.4-1.6-2.1l3.7-2.1
	c0.2-0.1,0.4-0.4,0.5-0.6l1.6-4.8c0.2-0.6-0.1-1.2-0.7-1.4c-0.6-0.2-1.2,0.1-1.4,0.7l-1.5,4.4l-4,2.2c-0.4-0.3-0.9-0.6-1.3-0.8
	c1.5-0.3,2.3-1.1,1.5-3.1c-0.5-1.2-2.1-2.3-3.8-2.9l1.6-3.7c0.6-0.2,1-0.7,1-1.4c0-0.8-0.6-1.4-1.4-1.4c-0.8,0-1.4,0.6-1.4,1.4
	c0,0.2,0,0.4,0.1,0.5l-1.7,4c-0.4-0.1-0.7-0.1-1-0.1c-0.4,0-0.9,0.1-1.3,0.2l-1.7-4c0.1-0.2,0.1-0.4,0.1-0.6c0-0.8-0.6-1.4-1.4-1.4
	c-0.8,0-1.4,0.6-1.4,1.4c0,0.6,0.4,1.2,1,1.4l1.6,3.8c-1.6,0.6-3.2,1.6-3.9,2.7c-1.1,1.9-0.1,2.7,1.5,3.1c-0.5,0.3-1,0.6-1.5,0.9
	L18,19.8l-1.5-4.4c-0.2-0.6-0.8-0.9-1.4-0.7c-0.6,0.2-0.9,0.8-0.7,1.4L16,21c0.1,0.3,0.3,0.5,0.5,0.6l3.6,2c-0.5,0.5-1,1.1-1.4,1.8
	l-4.3,2.8l-4.8-0.8c-0.6-0.1-1.2,0.3-1.3,0.9c-0.1,0.6,0.3,1.2,0.9,1.3l5.2,0.9c0.1,0,0.1,0,0.2,0c0.2,0,0.4-0.1,0.6-0.2l1.9-1.1
	c-0.4,1.3-0.4,2.8-0.4,4.3c0,0,0,0,0,0c0,0.1-0.3,0.1-0.4,0.2L12.7,40l-4.3,2.7c-0.5,0.3-0.7,1-0.4,1.5c0.2,0.3,0.6,0.5,0.9,0.5
	c0.2,0,0.4-0.1,0.6-0.2l4.5-2.9c0.2-0.1,0.3-0.2,0.4-0.4l2.4-4.2c1.3,5.3,5.4,9.4,10.5,10l1.2-13.2L30,47.1
	c5.1-0.6,9.3-4.8,10.6-10.2l2.6,4.4c0.1,0.2,0.2,0.3,0.4,0.4l4.5,2.9c0.2,0.1,0.4,0.2,0.6,0.2c0.4,0,0.7-0.2,0.9-0.5
	C49.8,43.8,49.7,43.1,49.2,42.7z M23.8,40.1c-1.1,0.4-2.3-0.4-2.7-1.6s0.2-2.5,1.3-2.9s2.3,0.4,2.7,1.6
	C25.5,38.4,24.9,39.7,23.8,40.1z M25.6,29.9c-0.3,0.9-1.2,1.3-1.9,1.1c-0.8-0.3-1.1-1.2-0.8-2s1.2-1.3,1.9-1.1
	C25.5,28.1,25.9,29,25.6,29.9z M32.5,27.4c0.8-0.3,1.6,0.2,1.9,1.1s-0.1,1.8-0.8,2c-0.8,0.3-1.6-0.2-1.9-1.1
	C31.4,28.6,31.8,27.7,32.5,27.4z M36,38.5c-0.4,1.2-1.6,1.9-2.7,1.6s-1.7-1.6-1.3-2.9c0.4-1.2,1.6-1.9,2.7-1.6S36.4,37.3,36,38.5z"
	/>
</svg>
