<?xml version="1.0" encoding="utf-8"?>
<!-- Generator: Adobe Illustrator 19.1.0, SVG Export Plug-In . SVG Version: 6.00 Build 0)  -->
<svg version="1.1" id="Layer_1" xmlns="http://www.w3.org/2000/svg" xmlns:xlink="http://www.w3.org/1999/xlink" x="0px" y="0px"
	 viewBox="0 0 57.7 57.7" style="enable-background:new 0 0 57.7 57.7;" xml:space="preserve">
<style type="text/css">
	.st0{fill:#231F20;}
</style>
<path class="st0" d="M42.9,28.5c-0.5-0.5-1.2-0.5-1.7-0.1c-5.4,5-8.5,9.9-10.2,13.7c1.2-11.5,8-19.6,8.1-19.7
	c0.4-0.5,0.4-1.3-0.1-1.7c-0.5-0.4-1.3-0.4-1.7,0.1c-0.4,0.4-7.5,9-8.7,21.3c-0.9-4.2-1.7-10.1-1-16.4c0.1-0.7-0.4-1.3-1.1-1.3
	c-0.7-0.1-1.3,0.4-1.3,1.1c-0.9,8.1,0.5,15.3,1.7,19.7c-7.6-8.3-10-21.9-10-22.1c-0.1-0.7-0.7-1.1-1.4-1c-0.7,0.1-1.1,0.7-1,1.4
	c0.1,0.8,3.2,18.5,14.2,26.5c0.1,0.1,0.3,0.1,0.4,0.1c0.2,0.2,0.5,0.3,0.8,0.3c0,0,0,0,0,0c0.6,0,1.1-0.4,1.2-1
	c0-0.1,1.3-9.6,11.8-19.3C43.3,29.7,43.4,29,42.9,28.5z"/>
<path class="st0" d="M20.5,19.1c-0.3-2.7-2.7-4.6-5.5-4.5c-2.7,0.1-4.8,2.3-5,5c-0.1,0.6,0,0.5,0.1,1.2c0,0,0.1,1.7,2.4,1.2l6.6-1.3
	C19,20.6,20.6,20.5,20.5,19.1z"/>
<path class="st0" d="M31.1,22.9c0.2-2.1-1.2-4.1-3.4-4.5c-2.1-0.4-4.1,0.8-4.8,2.9c-0.2,0.5-0.1,0.4-0.2,1c0,0-0.2,1.3,1.6,1.4
	l5.4,0.2C29.7,23.8,31,24,31.1,22.9z"/>
<path class="st0" d="M47.3,30.4c1.6-1.4,1.8-3.9,0.5-5.6c-1.3-1.7-3.7-2.1-5.5-1c-0.4,0.3-0.4,0.2-0.8,0.6c0,0-1,0.8,0.3,2.1
	l3.9,3.7C45.7,30.2,46.5,31.2,47.3,30.4z"/>
<path class="st0" d="M44.5,21.8c1.6-2.1,1.2-5.3-0.8-7.1c-2-1.8-5.1-1.7-7.1,0.1c-0.5,0.4-0.4,0.4-0.8,0.9c0,0-1.1,1.3,0.9,2.5
	l5.7,3.6C42.4,21.9,43.7,23,44.5,21.8z"/>
<path class="st0" d="M28.8,57.7C12.9,57.7,0,44.7,0,28.8S12.9,0,28.8,0c15.9,0,28.8,12.9,28.8,28.8S44.7,57.7,28.8,57.7z M28.8,1
	C13.5,1,1,13.5,1,28.8c0,15.3,12.5,27.8,27.8,27.8s27.8-12.5,27.8-27.8C56.7,13.5,44.2,1,28.8,1z"/>
</svg>
