<?xml version="1.0" encoding="utf-8"?>
<!-- Generator: Adobe Illustrator 19.1.0, SVG Export Plug-In . SVG Version: 6.00 Build 0)  -->
<svg version="1.1" id="Layer_1" xmlns="http://www.w3.org/2000/svg" xmlns:xlink="http://www.w3.org/1999/xlink" x="0px" y="0px"
	 viewBox="0 0 57.7 57.7" style="enable-background:new 0 0 57.7 57.7;" xml:space="preserve">
<style type="text/css">
	.st0{fill:#231F20;}
</style>
<path class="st0" d="M28.6,40.1C28.6,40.1,28.6,40.1,28.6,40.1L28.6,40.1z"/>
<path class="st0" d="M47.8,23.7c-0.9,0.1-1.8,0.6-2.3,1.3c-0.3,0.2-1.3,1.6-3.6,1.5c-1.3-0.1-2-0.3-2.4-0.5c-0.6-2.1-1.9-4-3.6-5.4
	c1-1.4,2.4-2.1,2.6-2.2c0.7-0.1,1.3-0.5,1.7-1c1-1.2,0.7-3-0.5-4c-1.2-1-3-0.7-4,0.5c-0.5,0.6-0.7,1.4-0.6,2.1
	c0,0.3-0.2,1.9-1.3,3.3c-1.3-0.7-2.8-1-4.3-1.1c-0.4-0.1-1-0.7-1.5-2.3c-0.7-2.2,0.1-3.6,0.2-3.9c0.4-0.7,0.6-1.5,0.5-2.4
	c-0.3-1.8-2.1-3.1-3.9-2.7c-1.8,0.3-3.1,2.1-2.7,3.9c0.2,0.9,0.7,1.7,1.4,2.2c0.3,0.3,1.7,1.2,1.8,3.5c0,1.4-0.2,2.2-0.4,2.5
	c-1.8,0.7-3.3,1.9-4.4,3.3c-1.2-1-1.8-2.3-1.9-2.6c-0.1-0.7-0.4-1.3-1-1.8c-1.2-1-3-0.9-4,0.3c-1,1.2-0.9,3,0.3,4
	c0.6,0.5,1.4,0.7,2.1,0.7c0.3,0,1.8,0.3,3.1,1.4c-0.7,1.4-1.1,3.1-1.1,4.8c0,0.4,0,0.8,0.1,1.2c-0.1,0.4-0.6,1.1-2.1,1.8
	c-2.1,1-3.5,0.4-3.9,0.3c-0.7-0.3-1.6-0.4-2.4-0.2C8,32.9,7,34.8,7.6,36.6c0.6,1.8,2.4,2.7,4.2,2.2c0.9-0.3,1.6-0.9,2-1.7
	c0.3-0.3,0.9-1.8,3.3-2.2c1.7-0.3,2.4-0.1,2.8,0.1c0.8,1.3,1.8,2.4,3.1,3.2c-0.8,1.6-2.3,2.4-2.5,2.6c-0.7,0.2-1.2,0.6-1.6,1.2
	c-0.8,1.3-0.5,3.1,0.9,3.9c1.3,0.8,3.1,0.5,3.9-0.9c0.4-0.7,0.5-1.5,0.4-2.2c0-0.3,0.1-2,1.1-3.5c1.2,0.5,2.4,0.7,3.8,0.8l0,0
	c0,0,0,0,0.1,0c0.1,0,0.1,0,0.2,0c0.4,0.1,1.1,0.5,1.7,2.3c0.7,2.2,0,3.6-0.1,3.9c-0.4,0.7-0.6,1.5-0.4,2.4c0.4,1.8,2.1,3,3.9,2.7
	c1.8-0.4,3-2.1,2.7-3.9c-0.2-0.9-0.7-1.7-1.5-2.2c-0.3-0.3-1.7-1.2-1.8-3.5c-0.1-2,0.3-2.6,0.5-2.8c1.2-0.6,2.2-1.4,3.1-2.3
	c1.5,1,2.2,2.4,2.3,2.7c0.1,0.7,0.5,1.3,1,1.7c1.2,1,3,0.7,4-0.5c1-1.2,0.7-3-0.5-4c-0.6-0.5-1.4-0.7-2.1-0.6
	c-0.3,0-1.9-0.3-3.3-1.3c0.7-1.2,1.2-2.6,1.4-4.1c0.2-0.4,0.8-0.9,2.4-1.3c2.3-0.5,3.6,0.3,3.9,0.5c0.6,0.5,1.5,0.7,2.3,0.7
	c1.8-0.2,3.2-1.8,3-3.7C51.3,24.9,49.7,23.5,47.8,23.7z M24.5,31.1c-1.6,0-2.8-1.3-2.8-2.8s1.3-2.8,2.8-2.8s2.8,1.3,2.8,2.8
	S26.1,31.1,24.5,31.1z M30.6,36.3c-1.2,0-2.2-1-2.2-2.2s1-2.2,2.2-2.2s2.2,1,2.2,2.2S31.9,36.3,30.6,36.3z M32.8,29.4
	c-1.2,0-2.2-1-2.2-2.2c0-1.2,1-2.2,2.2-2.2c1.2,0,2.2,1,2.2,2.2C35,28.4,34,29.4,32.8,29.4z"/>
</svg>
