<?xml version="1.0" encoding="utf-8"?>
<!-- Generator: Adobe Illustrator 19.1.0, SVG Export Plug-In . SVG Version: 6.00 Build 0)  -->
<svg version="1.1" id="Layer_1" xmlns="http://www.w3.org/2000/svg" xmlns:xlink="http://www.w3.org/1999/xlink" x="0px" y="0px"
	 viewBox="-395 282.3 32 32" style="enable-background:new -395 282.3 32 32;" xml:space="preserve">
<g id="icomoon-ignore">
</g>
<g>
	<g>
		<path d="M-373,309.9L-373,309.9c-3.4,0-7.8-2.3-11.6-6.1c-5.1-5.1-7.4-11.3-5.4-14.4c0.1-0.2,0.2-0.3,0.3-0.4l1.9-1.9
			c0.4-0.4,0.9-0.6,1.5-0.6c0.7,0,1.3,0.3,1.8,0.8l3.3,3.3c1,1,1,2.4,0.1,3.3l-2.1,2.1c0.8,1.2,1.8,2.4,2.9,3.5
			c1.1,1.1,2.3,2,3.5,2.9l2.1-2.1c0.4-0.4,0.9-0.6,1.5-0.6c0.7,0,1.3,0.3,1.8,0.8l3.3,3.3c0.4,0.4,0.7,1,0.8,1.6
			c0,0.6-0.2,1.2-0.6,1.6l-1.9,1.9c-0.1,0.1-0.3,0.2-0.4,0.3C-371,309.6-371.9,309.9-373,309.9z M-386.3,287.9c-0.1,0-0.3,0-0.4,0.2
			l-1.9,1.9c0,0,0,0,0,0.1l0,0.1c-1.7,2.5,0.6,8,5.2,12.6c3.4,3.5,7.6,5.7,10.5,5.7l0,0c0.8,0,1.5-0.2,2-0.5l0.1,0
			c0.1,0,0.1,0,0.1,0l1.9-1.9c0.2-0.2,0.2-0.4,0.2-0.5c0-0.3-0.1-0.5-0.3-0.7l-3.3-3.4c-0.2-0.2-0.5-0.3-0.7-0.3
			c-0.1,0-0.3,0-0.4,0.2l-2.2,2.2c-0.5,0.5-1.2,0.5-1.8,0.1c-1.3-0.9-2.5-1.9-3.7-3.1c-1.2-1.2-2.2-2.4-3.1-3.7
			c-0.4-0.6-0.4-1.4,0.1-1.8l2.2-2.2c0.3-0.3,0.2-0.8-0.1-1.2l-3.3-3.3C-385.8,288-386.1,287.9-386.3,287.9z"/>
	</g>
</g>
</svg>
