<svg xmlns="http://www.w3.org/2000/svg" xmlns:xlink="http://www.w3.org/1999/xlink" version="1.1" x="0px" y="0px" viewBox="0 0 90 112.5" enable-background="new 0 0 90 90" xml:space="preserve"><path d="M45.261,61.183C29.337,85.894,17.893,77.781,14.04,70.597C1.906,47.971,27.846,45.18,27.846,45.18  C1.959,52.554,1.529,37.419,0.704,30.275C-1.387,12.182,7.041,11.49,11.529,12.389c19.851,3.976,33.732,30.437,33.732,30.437h-0.523  c0,0,13.882-26.461,33.732-30.437c4.489-0.899,12.916-0.208,10.826,17.886c-0.825,7.144-1.255,22.279-27.143,14.905  c0,0,25.94,2.791,13.807,25.417c-3.853,7.185-15.297,15.297-31.222-9.414"/></svg>