<svg xmlns="http://www.w3.org/2000/svg" xmlns:xlink="http://www.w3.org/1999/xlink" version="1.1" x="0px" y="0px" viewBox="0 0 60 75" enable-background="new 0 0 60 60" xml:space="preserve"><path d="M39.055,49.477c0,0,5.04-4.816,5.04-14.338c0-7.612-3.935-12.428-5.515-14.055l4.343-3.587l2.879-2.379l-1.95-2.36  l2.706-2.236l1.95,2.361l2.879-2.379l-6.278-7.599L42.23,5.284l1.95,2.36l-2.706,2.235l-1.95-2.36l-2.879,2.379L15.115,27.685  c-0.889,0.734-1.451,1.715-1.676,2.761l-2.847-0.664l-0.34,1.454l3.095,0.722c0.068,0.71,0.296,1.41,0.679,2.049l-2.466,2.037  l0.951,1.152l2.467-2.037c0.555,0.496,1.198,0.852,1.883,1.053l0.125,3.175l1.492-0.059l-0.115-2.92  c1.069-0.024,2.139-0.39,3.029-1.124l7.64-6.312c0.425,1.328,1.892,3.837,6.886,3.254c0,1.008,1.792,7.056-2.576,11.09H10.717v3.024  h6.608v3.136H8.141l-3.36,7.616h43.909l-2.913-7.616H39.055z"/><text x="0" y="75" fill="#000000" font-size="5px" font-weight="bold" font-family="'Helvetica Neue', Helvetica, Arial-Unicode, Arial, Sans-serif">Created by Alex Auda Samora</text><text x="0" y="80" fill="#000000" font-size="5px" font-weight="bold" font-family="'Helvetica Neue', Helvetica, Arial-Unicode, Arial, Sans-serif">from the Noun Project</text></svg>