<svg xmlns="http://www.w3.org/2000/svg" xmlns:xlink="http://www.w3.org/1999/xlink" version="1.1" x="0px" y="0px" viewBox="0 0 100 100" enable-background="new 0 0 100 100" xml:space="preserve"><path d="M93.258,58.935c-0.104,0.125-10.278,12.423-6.438,21.354c0.448,1.047-0.034,2.264-1.083,2.714  c-1.047,0.448-2.261-0.034-2.711-1.081c-3.839-8.938-19.764-10.018-19.922-10.025c-0.639-0.039-1.222-0.373-1.578-0.898  c-0.359-0.526-0.461-1.188-0.264-1.795c0.151-0.471,0.347-1.266,0.511-2.189c0.146-0.078,0.3-0.167,0.44-0.237  c2.289-1.138,3.935-3.229,4.494-5.732c0.565-2.492-0.021-5.086-1.611-7.106c-1.381-1.776-4.133-5.943-6.037-10.596  c0.248-0.516,0.477-1.052,0.701-1.591c1.305,0.414,2.688,0.659,4.127,0.659c4.737,0,8.922-2.409,11.396-6.063  c4.664,1.519,8.963,1.81,9.047,1.818c0.617,0.039,1.189,0.357,1.552,0.859c0.362,0.505,0.477,1.148,0.313,1.748  c-0.435,1.599-1.315,6.346-0.148,9.057c1.141,2.653,5.139,5.195,6.581,5.95c0.555,0.289,0.95,0.813,1.07,1.43  C93.82,57.82,93.659,58.456,93.258,58.935z M60.659,57.435c-0.063-0.075-2.654-3.43-5.086-8.177v0.002  c-1.945-3.799-3.776-8.487-4.128-13.13c-0.372,0.338-0.76,0.659-1.169,0.956c-0.471,0.99-0.984,1.958-1.56,2.901  c-1.213,1.987-2.51,3.935-3.635,5.966c-2.255,4.057-4.578,8.078-6.977,12.067c-2.406,3.984-4.802,7.978-7.344,11.899  c-0.25,0.388-0.573,0.531-0.721,0.314c-0.099-0.135-0.094-0.393-0.013-0.658c1.373-4.467,2.891-8.868,4.393-13.274  c1.516-4.398,3.104-8.765,4.763-13.101c0.453-1.185,0.859-2.391,1.25-3.607c-2.836-0.37-5.398-1.604-7.422-3.438  c-6.68,2.052-12.951,2.292-13.068,2.294c-0.849,0.026-1.643,0.438-2.159,1.112c-0.519,0.677-0.701,1.552-0.5,2.38  c0.534,2.198,1.531,8.742-0.245,12.549c-1.742,3.731-7.161,6.802-9.099,7.672c-0.8,0.352-1.386,1.058-1.594,1.904  c-0.211,0.846-0.019,1.742,0.521,2.43c0.136,0.172,13.542,17.419,7.917,29.481c-0.659,1.414-0.047,3.097,1.367,3.755  c1.414,0.659,3.094,0.047,3.755-1.367c5.625-12.063,27.456-12.877,27.675-12.885c0.854-0.029,1.654-0.443,2.167-1.125  c0.518-0.683,0.692-1.563,0.487-2.394c-0.544-2.161-1.594-8.56,0.076-12.144c1.708-3.664,7.357-7.094,9.385-8.104  c0.761-0.375,1.315-1.078,1.5-1.911C61.383,58.977,61.185,58.104,60.659,57.435z M56.25,28.656c0,3.336,2.148,6.138,5.125,7.185l0,0  c0,0,0.003,0,0.005,0c0.386,0.135,0.776,0.25,1.186,0.323c0.43,0.083,0.869,0.133,1.322,0.133c0.482,0,0.953-0.055,1.412-0.143  c0.063-0.008,0.125-0.016,0.185-0.029c0.394-0.086,0.771-0.211,1.141-0.354c0.128-0.052,0.258-0.099,0.386-0.154  c0.294-0.135,0.575-0.292,0.849-0.463c0.633-0.388,1.198-0.865,1.692-1.414c0.003,0,0.003,0,0.003,0v-0.003  c1.214-1.354,1.972-3.12,1.972-5.081c0-4.219-3.425-7.636-7.639-7.636C59.675,21.021,56.25,24.438,56.25,28.656z M40.987,33.49  c0.401,0.073,0.807,0.125,1.232,0.125c0.127,0,0.25-0.031,0.377-0.039l0,0c4.034-0.203,7.261-3.513,7.261-7.602  c0-4.219-3.425-7.641-7.638-7.641c-4.216,0-7.641,3.422-7.641,7.641C34.578,29.771,37.362,32.898,40.987,33.49z M55.969,15.278  c4.214,0,7.638-3.419,7.638-7.638C63.606,3.419,60.183,0,55.969,0s-7.638,3.419-7.638,7.641  C48.331,11.859,51.755,15.278,55.969,15.278z"></path></svg>