<?xml version="1.0" encoding="utf-8"?>
<!-- Generator: Adobe Illustrator 26.5.0, SVG Export Plug-In . SVG Version: 6.00 Build 0)  -->
<svg version="1.1" id="Layer_1" xmlns="http://www.w3.org/2000/svg" xmlns:xlink="http://www.w3.org/1999/xlink" x="0px" y="0px"
	 viewBox="0 0 24 24" style="enable-background:new 0 0 24 24;" xml:space="preserve">
<style type="text/css">
	.st0{fill:#231F20;}
</style>
<path class="st0" d="M23.1,7.8c0-5.1-3.4-6.6-3.4-6.6C18,0.4,15.1,0,12.1,0H12C9,0,6.1,0.4,4.4,1.1c0,0-3.4,1.5-3.4,6.6
	c0,1.2,0,2.6,0,4.1c0.1,5,0.9,10,5.6,11.2c2.1,0.6,4,0.7,5.5,0.6c2.7-0.1,4.2-1,4.2-1l-0.1-1.9c0,0-1.9,0.6-4.1,0.5
	c-2.1-0.1-4.4-0.2-4.7-2.8c0-0.2,0-0.5,0-0.7c0,0,2.1,0.5,4.7,0.6c1.6,0.1,3.1-0.1,4.7-0.3c3-0.4,5.5-2.2,5.9-3.8
	C23.1,11.6,23.1,7.8,23.1,7.8z M19.1,14.4h-2.5v-6c0-1.3-0.5-1.9-1.6-1.9c-1.2,0-1.8,0.8-1.8,2.3V12h-2.4V8.7c0-1.5-0.6-2.3-1.8-2.3
	C8,6.4,7.4,7.1,7.4,8.3v6H5V8.2c0-1.3,0.3-2.3,1-3C6.6,4.4,7.5,4,8.6,4c1.3,0,2.2,0.5,2.8,1.5l0.6,1l0.6-1c0.6-1,1.6-1.5,2.8-1.5
	c1.1,0,2,0.4,2.6,1.1c0.6,0.7,1,1.8,1,3V14.4z"/>
</svg>
