<?xml version="1.0" encoding="utf-8"?>
<!-- Generator: Adobe Illustrator 19.1.0, SVG Export Plug-In . SVG Version: 6.00 Build 0)  -->
<svg version="1.1" id="Layer_1" xmlns="http://www.w3.org/2000/svg" xmlns:xlink="http://www.w3.org/1999/xlink" x="0px" y="0px"
	 viewBox="-333 259.3 44 52" style="enable-background:new -333 259.3 44 52;" xml:space="preserve">
<g>
	<g>
		<path d="M-307.3,306.3h16.3c1.1,0,2-0.9,2-2s-0.9-2-2-2h-16.3c-0.9-2.9-3.5-5-6.7-5c-3.2,0-5.8,2.1-6.7,5H-331c-1.1,0-2,0.9-2,2
			s0.9,2,2,2h10.3c0.9,2.9,3.5,5,6.7,5C-310.8,311.3-308.2,309.2-307.3,306.3L-307.3,306.3z M-292.3,287.3h1.3c1.1,0,2-0.9,2-2
			s-0.9-2-2-2h-1.3c-0.9-2.9-3.5-5-6.7-5c-3.2,0-5.8,2.1-6.7,5H-331c-1.1,0-2,0.9-2,2s0.9,2,2,2h25.3c0.9,2.9,3.5,5,6.7,5
			C-295.8,292.3-293.2,290.2-292.3,287.3z M-316.3,268.3h25.3c1.1,0,2-0.9,2-2c0-1.1-0.9-2-2-2h-25.3c-0.9-2.9-3.5-5-6.7-5
			c-3.2,0-5.8,2.1-6.7,5h-1.3c-1.1,0-2,0.9-2,2c0,1.1,0.9,2,2,2h1.3c0.9,2.9,3.5,5,6.7,5C-319.8,273.3-317.2,271.2-316.3,268.3
			L-316.3,268.3z"/>
	</g>
</g>
</svg>
