<?xml version="1.0" encoding="iso-8859-1"?>
<!-- Generator: Adobe Illustrator 19.0.0, SVG Export Plug-In . SVG Version: 6.00 Build 0)  -->
<svg version="1.1" id="Layer_1" xmlns="http://www.w3.org/2000/svg" xmlns:xlink="http://www.w3.org/1999/xlink" x="0px" y="0px"
	 viewBox="0 0 299.999 299.999" style="enable-background:new 0 0 299.999 299.999;" xml:space="preserve">
<g id="XMLID_518_">
	<path id="XMLID_3_" style="fill-rule:evenodd;clip-rule:evenodd;" d="M298.723,68.78c2.238-12.561,2.188-25.477-5.57-35.245
		c-10.824-13.696-33.863-14.2-49.646-11.783c-12.84,1.963-56.269,21.124-71.047,66.996c26.182-1.99,39.904,1.887,37.385,30.713
		c-1.055,12.061-7.148,25.274-13.947,37.941c-7.857,14.603-22.583,43.277-41.894,22.608c-17.394-18.602-16.088-54.179-20.065-77.871
		c-2.215-13.292-4.557-29.857-8.912-43.529c-3.753-11.757-12.359-25.932-22.884-29.004c-11.304-3.322-25.28,1.863-33.487,6.698
		C42.522,51.661,22.605,73.513,0,91.54l0,0c3.68,7.884,5.687,12.992,12.283,13.949c15.561,2.292,30.391-14.502,40.736,2.971
		c6.294,10.675,8.26,22.381,12.287,33.891c5.387,15.328,9.541,32.02,13.947,49.646c7.452,29.857,16.618,74.47,42.424,85.398
		c13.166,5.591,32.957-1.889,42.977-7.831c27.14-16.061,48.289-39.348,66.391-63.04C272.434,150.453,295.27,86.933,298.723,68.78z"
		/>
</g>
<g>
</g>
<g>
</g>
<g>
</g>
<g>
</g>
<g>
</g>
<g>
</g>
<g>
</g>
<g>
</g>
<g>
</g>
<g>
</g>
<g>
</g>
<g>
</g>
<g>
</g>
<g>
</g>
<g>
</g>
</svg>
