<?xml version="1.0" encoding="utf-8"?>
<!-- Generator: Adobe Illustrator 19.1.0, SVG Export Plug-In . SVG Version: 6.00 Build 0)  -->
<svg version="1.1" id="Layer_1" xmlns="http://www.w3.org/2000/svg" xmlns:xlink="http://www.w3.org/1999/xlink" x="0px" y="0px"
	 viewBox="-354 243.3 86 84" style="enable-background:new -354 243.3 86 84;" xml:space="preserve">
<path d="M-320.8,281.9h19.7c1.7,0,3,1.3,3,3v39.3c0,1.7-1.3,3-3,3h-19.7c-1.7,0-3-1.3-3-3v-39.3
	C-323.8,283.3-322.5,281.9-320.8,281.9z"/>
<path d="M-351,261.3h19.7c1.7,0,3,1.3,3,3v60c0,1.7-1.3,3-3,3H-351c-1.7,0-3-1.3-3-3v-60C-354,262.6-352.7,261.3-351,261.3z"/>
<path d="M-290.7,243.3h19.7c1.7,0,3,1.3,3,3v78c0,1.7-1.3,3-3,3h-19.7c-1.7,0-3-1.3-3-3v-78C-293.7,244.6-292.3,243.3-290.7,243.3z"
	/>
</svg>
