<?xml version="1.0" encoding="utf-8"?>
<!-- Generator: Adobe Illustrator 19.1.0, SVG Export Plug-In . SVG Version: 6.00 Build 0)  -->
<svg version="1.1"
	 id="Layer_1" xmlns:dc="http://purl.org/dc/elements/1.1/" xmlns:inkscape="http://www.inkscape.org/namespaces/inkscape" xmlns:cc="http://creativecommons.org/ns#" xmlns:svg="http://www.w3.org/2000/svg" xmlns:rdf="http://www.w3.org/1999/02/22-rdf-syntax-ns#" xmlns:sodipodi="http://sodipodi.sourceforge.net/DTD/sodipodi-0.dtd"
	 xmlns="http://www.w3.org/2000/svg" xmlns:xlink="http://www.w3.org/1999/xlink" x="0px" y="0px" viewBox="-353 246.3 84 78"
	 style="enable-background:new -353 246.3 84 78;" xml:space="preserve">
<g transform="translate(0,-952.36218)">
	<path d="M-300,1198.6c11,0,20,9,20,20c0,2.2-0.4,4.3-1,6.3c6.3,1.3,11,6.9,11,13.7c0,7.8-6.2,14-14,14h-25v14.4
		c1.1,0.5,2.1,1.4,2.6,2.6h27.9c0.8-1.8,2.5-3,4.6-3c2.8,0,5,2.2,5,5s-2.2,5-5,5c-2,0-3.8-1.2-4.6-3h-27.9c-0.8,1.8-2.5,3-4.6,3
		c-2,0-3.8-1.2-4.6-3h-27.9c-0.8,1.8-2.5,3-4.6,3c-2.8,0-5-2.2-5-5s2.2-5,5-5c2,0,3.8,1.2,4.6,3h27.9c0.5-1.1,1.4-2.1,2.6-2.6v-14.4
		h-25c-7.8,0-14-6.2-14-14c0-6.9,4.9-12.5,11.4-13.8c-0.2-1-0.4-2.1-0.4-3.2c0-8.3,6.7-15,15-15c3.1,0,6,0.9,8.4,2.6
		C-314.3,1202.9-307.6,1198.6-300,1198.6z"/>
</g>
</svg>
