<svg xmlns="http://www.w3.org/2000/svg" viewBox="0 0 64 64" x="0px" y="0px"><path fill="#000000" fill-rule="evenodd" d="M544.585529,112.586044 C539.658166,107.045636 536.515124,99.883139 536.057847,92 L557.152896,92 C557.476757,94.0973875 558.301947,96.0292681 559.502198,97.6693744 L544.585529,112.586044 Z M547.413956,115.414471 L562.330626,100.497802 C564.480533,102.071133 567.131792,103 570,103 C572.868208,103 575.519467,102.071133 577.669374,100.497802 L592.586044,115.414471 C586.580535,120.755471 578.669168,124 570,124 C561.330832,124 553.419465,120.755471 547.413956,115.414471 Z M536.057847,88 C537.054696,70.815007 550.815007,57.0546957 568,56.0578472 L568,77.1528964 C562.42176,78.0142398 558.01424,82.4217596 557.152896,88 L536.057847,88 L536.057847,88 Z M572,56.0578472 C589.846759,57.0930828 604,71.8937081 604,90 C604,98.6691676 600.755471,106.580535 595.414471,112.586044 L580.497802,97.6693744 C582.071133,95.519467 583,92.8682078 583,90 C583,83.5004278 578.23018,78.1149067 572,77.1528964 L572,56.0578472 L572,56.0578472 Z M570,99 C565.029437,99 561,94.9705627 561,90 C561,85.0294373 565.029437,81 570,81 C574.970563,81 579,85.0294373 579,90 C579,94.9705627 574.970563,99 570,99 Z" transform="translate(-536 -56)"/>
</svg>
