<?xml version="1.0" encoding="utf-8"?>
<!-- Generator: Adobe Illustrator 19.1.0, SVG Export Plug-In . SVG Version: 6.00 Build 0)  -->
<svg version="1.1" id="Layer_1" xmlns="http://www.w3.org/2000/svg" xmlns:xlink="http://www.w3.org/1999/xlink" x="0px" y="0px"
	 viewBox="-358.7 250.5 95.5 69.6" style="enable-background:new -358.7 250.5 95.5 69.6;" xml:space="preserve">
<path d="M-282.9,270.6c-3.4-11.8-14.2-20.1-26.7-20.1c-14.9,0-27.1,11.9-27.7,26.7h0c-11.8,0-21.5,9.6-21.5,21.5
	c0,11.1,8.7,20.5,19.8,21.4c0.5,0.1,0.9,0.1,1.4,0.1h49.3c13.8,0,25.1-11.2,25.1-25.1C-263.3,283.2-271.5,273.1-282.9,270.6z
	 M-299.3,293.5l-8.7-9.2v22.6h-6v-22.6l-8.7,9.2l-4.4-4.1l16.1-17l16.1,17L-299.3,293.5z"/>
</svg>
