<?xml version="1.0" encoding="utf-8"?>
<!-- Generator: Adobe Illustrator 19.1.0, SVG Export Plug-In . SVG Version: 6.00 Build 0)  -->
<svg version="1.1" id="full-logo" xmlns="http://www.w3.org/2000/svg" xmlns:xlink="http://www.w3.org/1999/xlink" x="0px" y="0px"
	 viewBox="142.5 210.4 849.2 174.6" style="enable-background:new 142.5 210.4 849.2 174.6;" xml:space="preserve">
<style type="text/css">
	.st0{fill:#4E9D2D;}
	.st1{fill:#FFFFFF;}
	.st2{fill:none;stroke:#FFFFFF;stroke-miterlimit:10;}
</style>
<path class="st0" d="M219.5,295.5c0-34.1,16.6-63.6,66.1-63.6C285.6,266.1,263.1,295.5,219.5,295.5"/>
<path class="st0" d="M298.7,385c9.3,0,16.4-1.3,23.7-4c0-27-16.1-46.2-44.5-60.1c-21.7-10.9-48.5-16.6-72.9-16.6
	c10.7-32.2,2.9-72-7.5-93.9c-11.5,22.9-18.7,62.3-7.6,94.3c-21.7,1.6-38.9,11-46.2,23.5c-0.5,0.9-1.7,3-1,3.3c0.5,0.3,1.4-0.6,1.9-1
	c7.8-7.3,18.2-10.8,28.2-10.8c23,0,39.3,19.1,50.8,30.6C248.2,374.9,272.4,385,298.7,385"/>
<g>
	<path class="st1" d="M393.8,258.3l-12,6.1c-0.6,0.3-1.2,0.8-1.8,0.8c-0.5,0-0.9-0.3-1.2-1c-2.7-6.4-6.6-8.8-10.6-8.8h-9.9
		c-5.8,0-10.8,4.9-10.8,10.8v44.4c0,5.8,5,10.8,10.8,10.8h7.3c6,0,10.6-4.8,10.6-10.8v-7c0-1-0.5-1.5-1.5-1.5h-14.1
		c-1,0-1.5-0.5-1.5-1.5v-12.7c0-1,0.5-1.5,1.5-1.5H392c1,0,1.5,0.5,1.5,1.5v22.8c0,15.6-10.9,26.5-27.9,26.5h-7.3
		c-17.1,0-27.9-10.9-27.9-26.5v-44.4c0-15.6,10.8-26.5,27.9-26.5h9.9c12.4,0,19.2,5.1,23.7,12.1c1.3,2.2,2.8,4.6,2.8,5.5
		C394.7,257.7,394.4,258,393.8,258.3z"/>
	<path class="st1" d="M441.5,335.6h-33.7c-1,0-1.5-0.5-1.5-1.5v-91.5c0-1.1,0.5-1.5,1.5-1.5h33.7c17.1,0,27.9,10.9,27.9,27.9v1.5
		c0,5.5-3.6,12-8,16.2c-0.5,0.3-0.6,0.8-0.6,1c0,0.3,0.1,0.8,0.6,1c4.4,4.2,8,11.4,8,16.9v2.2C469.4,324.9,458.6,335.6,441.5,335.6z
		 M452.3,267.6c0-5.8-5-10.8-10.8-10.8H425c-1,0-1.5,0.4-1.5,1.5v19.9c0,1.1,0.5,1.5,1.5,1.5h16.5c5.8,0,10.8-4.9,10.8-10.8V267.6z
		 M452.3,306.2c0-6-4.8-10.6-10.8-10.6H425c-1,0-1.5,0.5-1.5,1.5v21.3c0,1.1,0.5,1.5,1.5,1.5h16.5c5.8,0,10.8-4.6,10.8-10.8V306.2z"
		/>
	<path class="st1" d="M499.4,335.6h-14.2c-1,0-1.5-0.5-1.5-1.5v-91.5c0-1.1,0.5-1.5,1.5-1.5h14.2c1,0,1.5,0.4,1.5,1.5v91.5
		C500.9,335.1,500.5,335.6,499.4,335.6z"/>
	<path class="st1" d="M574.3,256.8h-35.7c-1,0-1.5,0.4-1.5,1.5v19.9c0,1.1,0.5,1.5,1.5,1.5h29.2c1,0,1.5,0.5,1.5,1.5V294
		c0,1-0.5,1.5-1.5,1.5h-29.2c-1,0-1.5,0.5-1.5,1.5v37c0,1-0.5,1.5-1.5,1.5h-14.2c-1,0-1.5-0.5-1.5-1.5v-91.5c0-1.1,0.5-1.5,1.5-1.5
		h52.9c1,0,1.5,0.4,1.5,1.5v12.7C575.8,256.4,575.3,256.8,574.3,256.8z"/>
</g>
<line class="st2" x1="604.4" y1="224.3" x2="604.4" y2="349.7"/>
<g>
	<path class="st1" d="M646.7,273.8h-1.6c-5.5,0-9-3.5-9-8.5v-16.1c0-5,3.5-8.5,9-8.5h2.5c2.8,0,4.7,0.8,6.1,2c0.9,0.7,1.5,1.6,2,2.5
		c0.2,0.3,0.1,0.6-0.3,0.7l-2.7,1.3c-0.3,0.2-0.5,0.1-0.6-0.2c-1.1-1.8-2.9-2.8-4.5-2.8h-2.5c-2.8,0-5,2.2-5,5v16.1c0,2.7,2.2,5,5,5
		h1.6c2.7,0,5-2.2,5-5v-3.7c0-0.4-0.2-0.5-0.5-0.5H646c-0.4,0-0.5-0.2-0.5-0.5v-2.5c0-0.4,0.2-0.5,0.5-0.5h9.2
		c0.4,0,0.5,0.2,0.5,0.5v7.2C655.7,270.3,652.2,273.8,646.7,273.8z"/>
	<path class="st1" d="M665.6,273.3h-3c-0.4,0-0.5-0.2-0.5-0.5v-31.1c0-0.4,0.2-0.5,0.5-0.5h3c0.4,0,0.5,0.2,0.5,0.5v31.1
		C666.1,273.2,666,273.3,665.6,273.3z"/>
	<path class="st1" d="M681.1,273.8c-5.4,0-9-3.6-9-8.5v-6.8c0-4.8,3.5-8.5,9-8.5c5.4,0,9,3.6,9,8.5v6.8
		C690.2,270.2,686.7,273.8,681.1,273.8z M686.1,258.3c0-2.6-2.1-4.7-5-4.7c-3.2,0-5,2.2-5,5v7.1c0,2.6,2.1,4.7,5,4.7
		c3.2,0,5-2.2,5-5V258.3z"/>
	<path class="st1" d="M705.2,273.3c-1.3,0-3.2-0.7-4.6-2.2c-0.4-0.4-0.9-0.3-0.9,0.4v1.4c0,0.4-0.2,0.5-0.5,0.5h-2.5
		c-0.4,0-0.5-0.2-0.5-0.5v-31.1c0-0.4,0.2-0.5,0.5-0.5h3c0.4,0,0.5,0.2,0.5,0.5v10.7c0,0.6,0.5,0.8,0.9,0.4c1.4-1.5,3.2-2.1,4.6-2.1
		c4.7,0,8.6,3.5,8.6,8.5v5.8C714.2,269.8,710.7,273.3,705.2,273.3z M710.2,259.1c0-2.7-2.3-5-5-5s-5,2.2-5,5v5.8c0,2.7,2.2,5,5,5
		c2.7,0,5-2.2,5-5V259.1z"/>
	<path class="st1" d="M735.9,273.3h-2.4c-0.4,0-0.5-0.2-0.5-0.5v-1.4c0-0.6-0.5-0.8-0.9-0.4c-1.5,1.5-3.3,2.3-4.4,2.3h-2
		c-3.7,0-6.6-2.4-6.6-6.2v-0.3c0-3.7,3-6.1,6.6-6.1h6.3c0.4,0,0.5-0.2,0.5-0.5v-1.7c0-2.8-2.2-4.9-5-4.9c-1.7,0-3.4,0.9-4.5,2.8
		c-0.2,0.3-0.4,0.4-0.7,0.2l-2.6-1.4c-0.3-0.2-0.4-0.4-0.2-0.7c0.6-0.9,1.2-1.8,2.1-2.4c1.4-1.2,3.4-1.9,5.9-1.9
		c5.5,0,9.1,3.3,9.1,8.4v14.3C736.4,273.2,736.3,273.3,735.9,273.3z M732.4,264.2c0-0.4-0.2-0.5-0.5-0.5h-6.3
		c-1.5,0-2.7,1.2-2.7,2.7v0.8c0,1.4,1.2,2.7,2.7,2.7h2c2.2,0,4.2-2,4.8-4V264.2z"/>
	<path class="st1" d="M746.4,273.3h-3c-0.4,0-0.5-0.2-0.5-0.5v-31.1c0-0.4,0.2-0.5,0.5-0.5h3c0.4,0,0.5,0.2,0.5,0.5v31.1
		C746.9,273.2,746.8,273.3,746.4,273.3z"/>
	<path class="st1" d="M773.7,273.3h-10c-0.4,0-0.5-0.2-0.5-0.5v-31.1c0-0.4,0.2-0.5,0.5-0.5h10c5.5,0,9,3.5,9,9v0.5
		c0,2-1.6,4.7-3.5,5.9c-0.5,0.3-0.5,0.6-0.1,0.9c1.7,1.1,3.5,3.6,3.5,6.1v0.8C782.7,269.9,779.2,273.3,773.7,273.3z M778.7,249.7
		c0-2.7-2.2-5-5-5h-6.1c-0.4,0-0.5,0.2-0.5,0.5v9.5c0,0.4,0.2,0.5,0.5,0.5h6.1c2.8,0,5-2.2,5-5V249.7z M778.7,263.7
		c0-2.7-2.2-4.9-5-4.9h-6.1c-0.4,0-0.5,0.2-0.5,0.5v10c0,0.4,0.2,0.5,0.5,0.5h6.1c2.8,0,5-2.2,5-5V263.7z"/>
	<path class="st1" d="M790.6,245.7c-1.4,0-2.5-1.1-2.5-2.5s1.1-2.5,2.5-2.5s2.5,1.1,2.5,2.5C793.2,244.6,792.1,245.7,790.6,245.7z
		 M792.2,273.3h-3c-0.4,0-0.5-0.2-0.5-0.5v-21.7c0-0.4,0.2-0.5,0.5-0.5h3c0.4,0,0.5,0.2,0.5,0.5v21.7
		C792.7,273.2,792.5,273.3,792.2,273.3z"/>
	<path class="st1" d="M807.7,273.8c-5.4,0-9-3.6-9-8.5v-6.8c0-4.8,3.5-8.5,9-8.5c5.4,0,9,3.6,9,8.5v6.8
		C816.7,270.2,813.2,273.8,807.7,273.8z M812.7,258.3c0-2.6-2.1-4.7-5-4.7c-3.2,0-5,2.2-5,5v7.1c0,2.6,2.1,4.7,5,4.7
		c3.2,0,5-2.2,5-5V258.3z"/>
	<path class="st1" d="M839.4,273.3H837c-0.4,0-0.5-0.2-0.5-0.5v-1.4c0-0.6-0.5-0.8-0.9-0.4c-1.5,1.6-3.4,2.3-4.6,2.3
		c-5.5,0-9-3.5-9-8.5V259c0-5,3.7-8.5,8.5-8.5c1.5,0,3.3,0.6,4.6,2.2c0.4,0.5,0.9,0.3,0.9-0.4v-10.7c0-0.4,0.2-0.5,0.5-0.5h3
		c0.4,0,0.5,0.2,0.5,0.5v31.1C840,273.2,839.8,273.3,839.4,273.3z M835.9,259.1c0-2.7-2.2-5-5-5s-5,2.2-5,5v5.8c0,2.7,2.2,5,5,5
		c2.7,0,5-2.2,5-5V259.1z"/>
	<path class="st1" d="M848.7,245.7c-1.4,0-2.5-1.1-2.5-2.5s1.1-2.5,2.5-2.5s2.5,1.1,2.5,2.5S850.1,245.7,848.7,245.7z M850.2,273.3
		h-3c-0.4,0-0.5-0.2-0.5-0.5v-21.7c0-0.4,0.2-0.5,0.5-0.5h3c0.4,0,0.5,0.2,0.5,0.5v21.7C850.7,273.2,850.6,273.3,850.2,273.3z"/>
	<path class="st1" d="M866.6,273c-0.1,0.2-0.3,0.3-0.5,0.3h-2.4c-0.2,0-0.4-0.1-0.5-0.3l-8.8-21.7c-0.2-0.5,0-0.7,0.5-0.7h3.2
		c0.2,0,0.4,0.1,0.5,0.3l5.8,14.6c0.1,0.3,0.5,1.5,0.6,2h0.2c0.1-0.5,0.5-1.7,0.6-2l5.7-14.6c0.1-0.2,0.3-0.3,0.5-0.3h3.2
		c0.5,0,0.7,0.3,0.5,0.7L866.6,273z"/>
	<path class="st1" d="M895.8,262.4h-13c-0.4,0-0.5,0.2-0.5,0.5v2.4c0,2.7,2.2,5,5,5c1.7,0,3.5-1,4.5-2.9c0.2-0.3,0.4-0.4,0.7-0.2
		l2.7,1.4c0.3,0.2,0.4,0.4,0.2,0.7c-0.5,0.8-1,1.6-1.7,2.3c-1.4,1.4-3.4,2.3-6.4,2.3c-5.5,0-9-3.5-9-8.5v-6.8c0-4.8,3.5-8.5,9-8.5
		c5.4,0,9,3.6,9,8.5v3.4C896.3,262.3,896.2,262.4,895.8,262.4z M892.3,258.3c0-2.6-2.1-4.7-5-4.7c-3.2,0-5,2.2-5,5v0.6
		c0,0.3,0.3,0.3,0.5,0.3h9c0.4,0,0.5-0.2,0.5-0.5V258.3z"/>
	<path class="st1" d="M912.2,254.8c-0.3-0.1-0.6-0.2-0.9-0.2c-2.8,0-5,1.9-5,4.9v13.3c0,0.4-0.2,0.5-0.5,0.5h-3
		c-0.4,0-0.5-0.2-0.5-0.5v-21.7c0-0.4,0.2-0.5,0.5-0.5h2.5c0.4,0,0.5,0.2,0.5,0.5v2.1c0,0.6,0.5,0.8,0.9,0.4c1.3-1.9,3.1-3,4.6-3
		h1.1c0.4,0,0.5,0.2,0.5,0.6v3.2C912.9,254.8,912.6,255,912.2,254.8z"/>
	<path class="st1" d="M924.5,273.8H923c-2.9,0-4.7-0.8-6.1-2c-0.9-0.7-1.5-1.6-1.9-2.5c-0.2-0.3-0.1-0.5,0.3-0.7l2.4-1.2
		c0.3-0.2,0.5-0.1,0.7,0.2c0.9,1.7,2.8,2.9,4.6,2.9h1.5c2.9,0,4.3-1.6,4.3-3.5c0-2.5-3.3-2.9-6.9-3.6c-3.4-0.7-7-2.1-7-6.4
		c0-4.6,3.5-6.9,8.1-6.9h1.5c2.7,0,4.5,0.7,5.9,1.8c1,0.8,1.6,1.7,2.1,2.6c0.2,0.3,0.1,0.6-0.3,0.7l-2.4,1.2
		c-0.3,0.2-0.5,0.1-0.7-0.2c-1-1.7-2.7-2.8-4.6-2.8H923c-3,0-4.1,1.4-4.1,3.1c0,2.8,3.3,3.1,6.8,3.8c3.9,0.8,7.1,2.1,7.1,6.2
		C932.8,270.5,930,273.8,924.5,273.8z"/>
	<path class="st1" d="M940.1,245.7c-1.4,0-2.5-1.1-2.5-2.5s1.1-2.5,2.5-2.5s2.5,1.1,2.5,2.5C942.7,244.6,941.5,245.7,940.1,245.7z
		 M941.6,273.3h-3c-0.4,0-0.5-0.2-0.5-0.5v-21.7c0-0.4,0.2-0.5,0.5-0.5h3c0.4,0,0.5,0.2,0.5,0.5v21.7
		C942.2,273.2,942,273.3,941.6,273.3z"/>
	<path class="st1" d="M957.6,273.8c-2.1-0.2-3.8-0.9-5.2-1.9c-1.9-1.5-3-3.8-3-6.5v-10.8c0-0.4-0.2-0.5-0.5-0.5H946
		c-0.4,0-0.5-0.2-0.5-0.5v-1.4l5.8-6.1c0.1-0.1,0.3-0.2,0.4-0.2h1.2c0.4,0,0.5,0.2,0.5,0.5v3.7c0,0.4,0.2,0.5,0.5,0.5h3.6
		c0.4,0,0.5,0.2,0.5,0.5v2.4c0,0.4-0.2,0.5-0.5,0.5H954c-0.4,0-0.5,0.2-0.5,0.5v10.8c0,2.3,1.6,4.4,4.2,4.9c0.3,0.1,0.4,0.2,0.4,0.5
		v2.5C958.2,273.6,958,273.8,957.6,273.8z"/>
	<path class="st1" d="M971.3,285.3c-3,0-4.9-0.9-6.4-2.2c-0.7-0.7-1.3-1.5-1.7-2.3c-0.2-0.3-0.1-0.6,0.2-0.7l2.7-1.3
		c0.3-0.2,0.5-0.1,0.7,0.2c1,1.8,2.8,2.9,4.5,2.9c2.8,0,5-2.2,5-5v-5.2c0-0.6-0.6-0.8-0.9-0.4c-1.1,1.4-2.6,2-4.1,2
		c-5.5,0-9-3.5-9-8.5v-13.7c0-0.4,0.2-0.5,0.5-0.5h3c0.4,0,0.5,0.2,0.5,0.5v13.7c0,2.7,2.2,5,5,5c3.1,0,5-2.6,5-5v-13.7
		c0-0.4,0.2-0.5,0.5-0.5h3c0.4,0,0.5,0.2,0.5,0.5v25.1C980.3,281.4,977.3,285.3,971.3,285.3z"/>
	<path class="st1" d="M640.3,334.5h-3c-0.4,0-0.5-0.2-0.5-0.5v-31.1c0-0.4,0.2-0.5,0.5-0.5h3c0.4,0,0.5,0.2,0.5,0.5V334
		C640.9,334.4,640.7,334.5,640.3,334.5z"/>
	<path class="st1" d="M665.7,334.5h-3c-0.4,0-0.5-0.2-0.5-0.5v-13.8c0-2.7-2.3-5-5-5s-5,2.2-5,5V334c0,0.4-0.2,0.5-0.5,0.5h-3
		c-0.4,0-0.5-0.2-0.5-0.5v-21.7c0-0.4,0.2-0.5,0.5-0.5h2.5c0.4,0,0.5,0.2,0.5,0.5v1.3c0,0.6,0.5,0.8,0.9,0.4
		c1.4-1.6,3.1-2.2,4.6-2.2c5.5,0,9.1,3.5,9.1,8.5V334C666.2,334.4,666,334.5,665.7,334.5z"/>
	<path class="st1" d="M683.9,305.1c-0.1,0.3-0.3,0.4-0.5,0.4c-0.5-0.1-0.7-0.1-1.1-0.1c-2.8,0-5,2.2-5,5v3.2c0,0.4,0.2,0.5,0.5,0.5
		h3.7c0.4,0,0.5,0.2,0.5,0.5v2.4c0,0.4-0.2,0.5-0.5,0.5h-3.7c-0.4,0-0.5,0.2-0.5,0.5v16c0,0.4-0.2,0.5-0.5,0.5h-3
		c-0.4,0-0.5-0.2-0.5-0.5v-15.9c0-0.4-0.2-0.5-0.5-0.5h-1.3c-0.4,0-0.5-0.2-0.5-0.5v-2.4c0-0.4,0.2-0.5,0.5-0.5h1.3
		c0.4,0,0.5-0.2,0.5-0.5V311c0-5,4-9,9-9c0.7,0,1.2,0.1,2,0.1c0.4,0.1,0.6,0.3,0.4,0.7L683.9,305.1z"/>
	<path class="st1" d="M694.2,335c-5.4,0-9-3.6-9-8.5v-6.8c0-4.8,3.5-8.5,9-8.5c5.4,0,9,3.6,9,8.5v6.8
		C703.3,331.4,699.8,335,694.2,335z M699.2,319.5c0-2.6-2.1-4.7-5-4.7c-3.2,0-5,2.2-5,5v7.1c0,2.6,2.1,4.7,5,4.7c3.2,0,5-2.2,5-5
		V319.5z"/>
	<path class="st1" d="M719.2,316c-0.3-0.1-0.6-0.2-0.9-0.2c-2.8,0-5,1.9-5,4.9V334c0,0.4-0.2,0.5-0.5,0.5h-3c-0.4,0-0.5-0.2-0.5-0.5
		v-21.7c0-0.4,0.2-0.5,0.5-0.5h2.5c0.4,0,0.5,0.2,0.5,0.5v2.1c0,0.6,0.5,0.8,0.9,0.4c1.3-1.9,3.1-3,4.6-3h1.1c0.4,0,0.5,0.2,0.5,0.6
		v3.2C719.9,316,719.6,316.2,719.2,316z"/>
	<path class="st1" d="M752.7,334.5h-3c-0.4,0-0.5-0.2-0.5-0.5v-13.8c0-2.8-2.3-5-4.5-5c-2,0-4.5,2.2-4.5,5V334
		c0,0.4-0.2,0.5-0.5,0.5h-3c-0.4,0-0.5-0.2-0.5-0.5v-13.8c0-2.8-2.3-5-4.5-5c-2,0-4.5,2.2-4.5,5V334c0,0.4-0.2,0.5-0.5,0.5h-3
		c-0.4,0-0.5-0.2-0.5-0.5v-21.7c0-0.4,0.2-0.5,0.5-0.5h2.5c0.4,0,0.5,0.2,0.5,0.5v1.3c0,0.6,0.4,0.8,0.8,0.4
		c1.4-1.6,3.2-2.2,4.7-2.2c1.8,0,4.1,0.8,5.6,2.7c0.3,0.4,0.6,0.3,0.8,0c1.6-1.8,3.8-2.7,6.1-2.7c4.8,0,8.5,3.5,8.5,8.5V334
		C753.3,334.4,753.1,334.5,752.7,334.5z"/>
	<path class="st1" d="M775.4,334.5H773c-0.4,0-0.5-0.2-0.5-0.5v-1.4c0-0.6-0.5-0.8-0.9-0.4c-1.5,1.5-3.3,2.3-4.4,2.3h-2
		c-3.7,0-6.6-2.4-6.6-6.2V328c0-3.7,3-6.1,6.6-6.1h6.3c0.4,0,0.5-0.2,0.5-0.5v-1.7c0-2.8-2.2-4.9-5-4.9c-1.7,0-3.4,0.9-4.5,2.8
		c-0.2,0.3-0.4,0.4-0.7,0.2l-2.6-1.4c-0.3-0.2-0.4-0.4-0.2-0.7c0.6-0.9,1.2-1.8,2.1-2.4c1.4-1.2,3.4-1.9,5.9-1.9
		c5.5,0,9.1,3.3,9.1,8.4V334C775.9,334.4,775.8,334.5,775.4,334.5z M771.9,325.4c0-0.4-0.2-0.5-0.5-0.5h-6.3c-1.5,0-2.7,1.2-2.7,2.7
		v0.8c0,1.4,1.2,2.7,2.7,2.7h2c2.2,0,4.2-2,4.8-4V325.4z"/>
	<path class="st1" d="M791.1,335c-2.1-0.2-3.8-0.9-5.2-1.9c-1.9-1.5-3-3.8-3-6.5v-10.8c0-0.4-0.2-0.5-0.5-0.5h-2.9
		c-0.4,0-0.5-0.2-0.5-0.5v-1.4l5.8-6.1c0.1-0.1,0.3-0.2,0.4-0.2h1.2c0.4,0,0.5,0.2,0.5,0.5v3.7c0,0.4,0.2,0.5,0.5,0.5h3.6
		c0.4,0,0.5,0.2,0.5,0.5v2.4c0,0.4-0.2,0.5-0.5,0.5h-3.6c-0.4,0-0.5,0.2-0.5,0.5v10.8c0,2.3,1.6,4.4,4.2,4.9
		c0.3,0.1,0.4,0.2,0.4,0.5v2.5C791.7,334.8,791.5,335,791.1,335z"/>
	<path class="st1" d="M798,306.9c-1.4,0-2.5-1.1-2.5-2.5s1.1-2.5,2.5-2.5s2.5,1.1,2.5,2.5C800.6,305.8,799.5,306.9,798,306.9z
		 M799.6,334.5h-3c-0.4,0-0.5-0.2-0.5-0.5v-21.7c0-0.4,0.2-0.5,0.5-0.5h3c0.4,0,0.5,0.2,0.5,0.5V334
		C800.1,334.4,799.9,334.5,799.6,334.5z"/>
	<path class="st1" d="M815.1,335c-5.4,0-9-3.6-9-8.5v-6.8c0-4.8,3.5-8.5,9-8.5c5.4,0,9,3.6,9,8.5v6.8
		C824.1,331.4,820.6,335,815.1,335z M820.1,319.5c0-2.6-2.1-4.7-5-4.7c-3.2,0-5,2.2-5,5v7.1c0,2.6,2.1,4.7,5,4.7c3.2,0,5-2.2,5-5
		V319.5z"/>
	<path class="st1" d="M847.7,334.5h-3c-0.4,0-0.5-0.2-0.5-0.5v-13.8c0-2.7-2.3-5-5-5s-5,2.2-5,5V334c0,0.4-0.2,0.5-0.5,0.5h-3
		c-0.4,0-0.5-0.2-0.5-0.5v-21.7c0-0.4,0.2-0.5,0.5-0.5h2.5c0.4,0,0.5,0.2,0.5,0.5v1.3c0,0.6,0.5,0.8,0.9,0.4
		c1.4-1.6,3.1-2.2,4.6-2.2c5.5,0,9.1,3.5,9.1,8.5V334C848.2,334.4,848,334.5,847.7,334.5z"/>
	<path class="st1" d="M881.6,305.9h-13.1c-0.4,0-0.5,0.2-0.5,0.5v9.5c0,0.4,0.2,0.5,0.5,0.5h10.7c0.4,0,0.5,0.2,0.5,0.5v2.5
		c0,0.4-0.2,0.5-0.5,0.5h-10.7c-0.4,0-0.5,0.2-0.5,0.5V334c0,0.4-0.2,0.5-0.5,0.5h-3c-0.4,0-0.5-0.2-0.5-0.5v-31.1
		c0-0.4,0.2-0.5,0.5-0.5h17c0.4,0,0.5,0.2,0.5,0.5v2.5C882.1,305.8,882,305.9,881.6,305.9z"/>
	<path class="st1" d="M899.7,334.5h-2.4c-0.4,0-0.5-0.2-0.5-0.5v-1.4c0-0.6-0.5-0.8-0.9-0.4c-1.5,1.5-3.3,2.3-4.4,2.3h-2
		c-3.7,0-6.6-2.4-6.6-6.2V328c0-3.7,3-6.1,6.6-6.1h6.3c0.4,0,0.5-0.2,0.5-0.5v-1.7c0-2.8-2.2-4.9-5-4.9c-1.7,0-3.4,0.9-4.5,2.8
		c-0.2,0.3-0.4,0.4-0.7,0.2l-2.6-1.4c-0.3-0.2-0.4-0.4-0.2-0.7c0.6-0.9,1.2-1.8,2.1-2.4c1.4-1.2,3.4-1.9,5.9-1.9
		c5.5,0,9.1,3.3,9.1,8.4V334C900.2,334.4,900.1,334.5,899.7,334.5z M896.2,325.4c0-0.4-0.2-0.5-0.5-0.5h-6.3c-1.5,0-2.7,1.2-2.7,2.7
		v0.8c0,1.4,1.2,2.7,2.7,2.7h2c2.2,0,4.2-2,4.8-4V325.4z"/>
	<path class="st1" d="M921.1,333c-1.4,1.2-3.3,2-6.2,2c-5.5,0-9-3.7-9-8.5v-6.8c0-4.8,3.5-8.5,9-8.5c2.9,0,4.8,0.8,6.2,2
		c0.8,0.7,1.4,1.5,1.9,2.4c0.2,0.3,0.1,0.6-0.3,0.7l-2.7,1.4c-0.3,0.2-0.5,0.1-0.6-0.2c-1.1-1.8-2.8-2.9-4.5-2.9c-3.2,0-5,2.2-5,5
		v6.8c0,2.8,1.8,5,5,5c1.7,0,3.5-1,4.5-2.9c0.2-0.3,0.4-0.4,0.7-0.2l2.7,1.4c0.3,0.2,0.4,0.4,0.2,0.7
		C922.6,331.4,922,332.2,921.1,333z"/>
	<path class="st1" d="M930,306.9c-1.4,0-2.5-1.1-2.5-2.5s1.1-2.5,2.5-2.5s2.5,1.1,2.5,2.5C932.6,305.8,931.4,306.9,930,306.9z
		 M931.5,334.5h-3c-0.4,0-0.5-0.2-0.5-0.5v-21.7c0-0.4,0.2-0.5,0.5-0.5h3c0.4,0,0.5,0.2,0.5,0.5V334
		C932.1,334.4,931.9,334.5,931.5,334.5z"/>
	<path class="st1" d="M942.3,334.5h-3c-0.4,0-0.5-0.2-0.5-0.5v-31.1c0-0.4,0.2-0.5,0.5-0.5h3c0.4,0,0.5,0.2,0.5,0.5V334
		C942.8,334.4,942.7,334.5,942.3,334.5z"/>
	<path class="st1" d="M951.5,306.9c-1.4,0-2.5-1.1-2.5-2.5s1.1-2.5,2.5-2.5s2.5,1.1,2.5,2.5C954.1,305.8,953,306.9,951.5,306.9z
		 M953.1,334.5h-3c-0.4,0-0.5-0.2-0.5-0.5v-21.7c0-0.4,0.2-0.5,0.5-0.5h3c0.4,0,0.5,0.2,0.5,0.5V334
		C953.6,334.4,953.4,334.5,953.1,334.5z"/>
	<path class="st1" d="M969,335c-2.1-0.2-3.8-0.9-5.2-1.9c-1.9-1.5-3-3.8-3-6.5v-10.8c0-0.4-0.2-0.5-0.5-0.5h-2.9
		c-0.4,0-0.5-0.2-0.5-0.5v-1.4l5.8-6.1c0.1-0.1,0.3-0.2,0.4-0.2h1.2c0.4,0,0.5,0.2,0.5,0.5v3.7c0,0.4,0.2,0.5,0.5,0.5h3.6
		c0.4,0,0.5,0.2,0.5,0.5v2.4c0,0.4-0.2,0.5-0.5,0.5h-3.6c-0.4,0-0.5,0.2-0.5,0.5v10.8c0,2.3,1.6,4.4,4.2,4.9
		c0.3,0.1,0.4,0.2,0.4,0.5v2.5C969.6,334.8,969.4,335,969,335z"/>
	<path class="st1" d="M982.7,346.5c-3,0-4.9-0.9-6.4-2.2c-0.7-0.7-1.3-1.5-1.7-2.3c-0.2-0.3-0.1-0.6,0.2-0.7l2.7-1.3
		c0.3-0.2,0.5-0.1,0.7,0.2c1,1.8,2.8,2.9,4.5,2.9c2.8,0,5-2.2,5-5v-5.2c0-0.6-0.6-0.8-0.9-0.4c-1.1,1.4-2.6,2-4.1,2
		c-5.5,0-9-3.5-9-8.5v-13.7c0-0.4,0.2-0.5,0.5-0.5h3c0.4,0,0.5,0.2,0.5,0.5V326c0,2.7,2.2,5,5,5c3.1,0,5-2.6,5-5v-13.7
		c0-0.4,0.2-0.5,0.5-0.5h3c0.4,0,0.5,0.2,0.5,0.5v25.1C991.7,342.6,988.7,346.5,982.7,346.5z"/>
</g>
</svg>
