<?xml version="1.0" encoding="UTF-8"?>
<svg id="Layer_2" data-name="Layer 2" xmlns="http://www.w3.org/2000/svg" viewBox="0 0 30.6 12.96">
  <defs>
    <style>
      .cls-1 {
        fill: #fff;
      }
    </style>
  </defs>
  <g id="Layer_1-2" data-name="Layer 1">
    <g>
      <path class="cls-1" d="m12.79,6.88h-2.4c-.22,0-.4-.18-.4-.4s.18-.4.4-.4h2.4c.22,0,.4.18.4.4,0,.23-.18.4-.4.4Zm-3.28-2.67c0-.3-.24-.56-.56-.56s-.56.24-.56.56c0,.16.06.29.16.39.37.37.37.96,0,1.33-.1.1-.16.24-.16.39,0,.3.24.56.56.56s.56-.24.56-.56c0-.16-.06-.29-.16-.39-.37-.37-.37-.96,0-1.33.1-.1.16-.23.16-.39Zm-.27-1.77h-.94c-.22,0-.4.18-.4.4s.18.4.4.4h.94c.22,0,.4-.18.4-.4s-.18-.4-.4-.4Zm.67,3.24c.23,0,.41-.18.41-.41s-.18-.41-.41-.41-.41.18-.41.41.18.41.41.41ZM6.72,1.62c0,.22.18.4.4.4h3.21c.22,0,.4-.18.4-.4s-.18-.4-.4-.4h-3.21c-.22,0-.4.18-.4.4Zm3.51,1.22c0,.22.18.4.4.4h.94c.22,0,.4-.18.4-.4s-.18-.4-.4-.4h-.94c-.23,0-.4.18-.4.4ZM5.61.8h2.65c.22,0,.4-.18.4-.4s-.18-.4-.4-.4h-2.65c-.22,0-.4.18-.4.4s.18.4.4.4Zm4.62,3.24c0,.22.18.4.4.4h1.65c.22,0,.4-.18.4-.4s-.18-.4-.4-.4h-1.65c-.23,0-.4.18-.4.4Zm-5.1,3.8c0-.3-.24-.56-.56-.56s-.56.24-.56.56c0,.16.06.29.16.39.37.37.37.96,0,1.33-.1.1-.16.24-.16.39,0,.3.24.56.56.56s.56-.24.56-.56c0-.16-.06-.29-.16-.39-.37-.37-.37-.96,0-1.33.1-.1.16-.24.16-.39Zm.96,1.87c-.22,0-.4.18-.4.4s.18.4.4.4h1.23c.22,0,.4-.18.4-.4s-.18-.4-.4-.4h-1.23Zm1.63-3.24c0-.22-.18-.4-.4-.4H2.11c-.22,0-.4.18-.4.4s.18.4.4.4h5.22c.22,0,.4-.17.4-.4Zm-.1-2.43c0-.22-.18-.4-.4-.4h-2.93c-.22,0-.4.18-.4.4s.18.4.4.4h2.94c.22,0,.39-.18.39-.4Zm-1.16,1.62c.11,0,.21-.05.28-.12.27-.27.7-.27.95,0,.07.07.17.12.28.12.22,0,.4-.18.4-.4s-.18-.4-.4-.4c-.11,0-.21.05-.28.12-.27.27-.7.27-.95,0-.07-.07-.17-.12-.28-.12-.22,0-.4.18-.4.4s.18.4.4.4Zm-2.93,3.66c.23,0,.41-.18.41-.41s-.18-.41-.41-.41-.41.18-.41.41.18.41.41.41Zm8.8,0c.23,0,.41-.18.41-.41s-.18-.41-.41-.41-.41.18-.41.41.18.41.41.41Zm-8.71-1.63c0-.22-.18-.4-.4-.4h-.88c-.22,0-.4.18-.4.4s.18.4.4.4h.88c.22,0,.4-.18.4-.4Zm7.05-2.43c0,.22.18.4.4.4h1.59c.22,0,.4-.18.4-.4s-.18-.4-.4-.4h-1.59c-.22,0-.4.18-.4.4Zm-2.39,6.89h-2.11c-.22,0-.4.18-.4.4s.18.4.4.4h2.12c.22,0,.4-.18.4-.4-.01-.23-.2-.4-.41-.4Zm2.28-1.22h-1.78c-.22,0-.4.18-.4.4s.18.4.4.4h1.78c.22,0,.4-.18.4-.4s-.18-.4-.4-.4Zm-5.58,1.19c-.23,0-.41.18-.41.41s.18.41.41.41.41-.18.41-.41-.18-.41-.41-.41Zm2.91-.79c0-.22-.18-.4-.4-.4H2.63c-.22,0-.4.18-.4.4s.18.4.4.4h4.88c.22,0,.4-.18.4-.4Zm4.8-4.05h-.6c-.22,0-.4.18-.4.4s.18.4.4.4h.6c.22,0,.4-.18.4-.4-.01-.22-.18-.4-.4-.4Zm-9.18,2.83c0-.22-.18-.4-.4-.4h-1.61c-.22,0-.4.18-.4.4s.18.4.4.4h1.61c.22,0,.4-.18.4-.4Zm8.17-.4h-3.05c-.22,0-.4.18-.4.4s.18.4.4.4h3.05c.22,0,.4-.18.4-.4s-.18-.4-.4-.4ZM.55,5.67h4.84c.22,0,.4-.18.4-.4s-.18-.4-.4-.4H.55c-.22,0-.4.18-.4.4,0,.22.17.4.4.4Zm1.1-2.44h5.39c.22,0,.4-.18.4-.4s-.18-.4-.4-.4H1.65c-.22,0-.4.18-.4.4,0,.23.18.4.4.4Zm1.01.82c0,.23.18.41.41.41s.41-.18.41-.41-.18-.41-.41-.41-.41.18-.41.41Zm-1.73.4h.95c.22,0,.4-.18.4-.4s-.18-.4-.4-.4h-.95c-.22,0-.4.18-.4.4,0,.22.18.4.4.4Zm1.8,4.46c0-.22-.18-.4-.4-.4H.84c-.22,0-.4.18-.4.4s.18.4.4.4h1.49c.22-.01.4-.18.4-.4Zm.12-6.89h1.28c.22,0,.4-.18.4-.4s-.18-.4-.4-.4h-1.28c-.22,0-.4.18-.4.4s.18.4.4.4Zm2.37-.4c0,.23.18.41.41.41s.41-.18.41-.41-.18-.41-.41-.41-.41.18-.41.41Zm-3.94,6.47c.22,0,.4-.18.4-.4s-.18-.4-.4-.4H.5c-.22,0-.4.18-.4.4s.18.4.4.4h.78Zm-.88-1.22h.55c.22,0,.4-.18.4-.4s-.18-.4-.4-.4H.4c-.22,0-.4.18-.4.4.01.23.18.4.4.4Z"/>
      <g>
        <path class="cls-1" d="m5.63,8.3c0-.57.45-1.04,1.09-1.04.24,0,.43.05.61.16.07.05.09.12.04.2l-.07.1c-.05.07-.11.07-.2.04-.15-.07-.27-.09-.38-.09-.35,0-.62.28-.62.63s.23.63.65.63c.12,0,.24-.02.35-.09v-.3h-.37c-.09,0-.15-.05-.15-.13v-.06c0-.09.05-.13.15-.13h.63c.09,0,.15.05.15.13v.57c0,.07-.02.12-.09.17-.22.16-.46.23-.7.23-.66,0-1.1-.46-1.1-1.02Z"/>
        <path class="cls-1" d="m9.46,8.73c0,.34-.28.57-.72.57h-.74c-.09,0-.15-.05-.15-.13v-1.73c0-.09.05-.13.15-.13h.66c.4,0,.71.21.71.55,0,.17-.09.34-.32.41.28.04.41.27.41.46Zm-1.15-1.07v.49h.24c.26,0,.37-.12.37-.26,0-.15-.12-.23-.29-.23h-.32Zm.7,1.04c0-.13-.11-.26-.38-.26h-.32v.5h.41c.18,0,.28-.11.28-.24Z"/>
        <path class="cls-1" d="m9.63,8.3c0-.56.43-1.04,1.1-1.04.26,0,.45.07.61.2.07.05.09.12.02.2l-.07.09c-.05.07-.11.07-.2.02-.11-.06-.26-.1-.38-.1-.4,0-.65.29-.65.63s.24.63.65.63c.12,0,.27-.04.38-.1.07-.05.15-.05.2.02l.07.09c.05.07.05.13-.01.18-.17.12-.37.2-.62.2-.67,0-1.1-.48-1.1-1.02Z"/>
      </g>
      <g>
        <path class="cls-1" d="m16.36,2.18c0-.55.44-.99,1.01-.99.23,0,.41.05.6.15.06.04.07.1.04.16l-.05.06c-.04.06-.09.07-.16.04-.18-.1-.29-.1-.43-.1-.37,0-.65.29-.65.67,0,.34.23.66.67.66.13,0,.27-.04.38-.1v-.33h-.38c-.07,0-.11-.05-.11-.12v-.02c0-.07.04-.11.11-.11h.6c.07,0,.11.04.11.11v.55c0,.06-.02.11-.09.16-.21.16-.44.21-.65.21-.6-.01-1.01-.45-1.01-.99Z"/>
        <path class="cls-1" d="m18.48,3.02v-1.68c0-.07.04-.11.11-.11h.13c.07,0,.11.04.11.11v1.49h.74c.07,0,.12.05.12.12v.07c0,.07-.05.11-.12.11h-1c-.06,0-.1-.04-.1-.11Z"/>
        <path class="cls-1" d="m19.75,2.18c0-.54.43-.98,1-.98s1,.44,1,.98-.43.98-1,.98-1-.44-1-.98Zm1.63,0c0-.38-.27-.67-.63-.67s-.63.29-.63.67.27.67.63.67.63-.29.63-.67Z"/>
        <path class="cls-1" d="m23.54,2.61c0,.32-.27.52-.66.52h-.7c-.07,0-.11-.04-.11-.11v-1.68c0-.07.04-.11.11-.11h.61c.38,0,.65.2.65.5,0,.17-.1.35-.33.41.28.05.43.26.43.46Zm-1.1-1.09v.54h.26c.28,0,.39-.13.39-.28,0-.16-.13-.26-.3-.26h-.34Zm.74,1.06c0-.15-.12-.29-.43-.29h-.33v.54h.44c.2.01.32-.09.32-.24Z"/>
        <path class="cls-1" d="m23.69,3l.65-1.67c.02-.06.07-.1.13-.1h.17c.06,0,.11.02.13.1l.65,1.67c.02.07,0,.13-.09.13h-.13c-.07,0-.11-.02-.13-.1l-.11-.28h-.82l-.11.28c-.02.06-.06.1-.13.1h-.13c-.07,0-.11-.05-.07-.13Zm1.18-.52l-.33-.88-.33.88h.66Z"/>
        <path class="cls-1" d="m25.68,3.02v-1.68c0-.07.04-.11.11-.11h.13c.07,0,.11.04.11.11v1.49h.74c.07,0,.12.05.12.12v.07c0,.07-.05.11-.12.11h-1s-.1-.04-.1-.11Z"/>
      </g>
      <g>
        <path class="cls-1" d="m16.36,5.05c0-.52.39-.98,1.04-.98.24,0,.41.06.57.17.06.05.07.1.02.16l-.05.06c-.04.06-.1.07-.16.02-.11-.06-.26-.1-.39-.1-.43,0-.67.3-.67.67s.24.67.67.67c.13,0,.28-.04.39-.1.07-.04.12-.04.16.02l.05.06c.04.06.04.11-.01.15-.16.11-.33.17-.59.17-.65,0-1.04-.45-1.04-.99Z"/>
        <path class="cls-1" d="m18.16,5.05c0-.54.43-.98,1-.98s1,.44,1,.98-.43.98-1,.98c-.57.01-1-.44-1-.98Zm1.63,0c0-.38-.27-.67-.63-.67s-.63.29-.63.67.27.67.63.67.63-.29.63-.67Z"/>
        <path class="cls-1" d="m21.15,5.3h-.32v.59c0,.07-.04.11-.11.11h-.13c-.07,0-.11-.04-.11-.11v-1.67c0-.07.04-.11.11-.11h.72c.39,0,.61.28.61.62,0,.28-.16.51-.43.57.02.2.13.45.32.45.05,0,.1-.01.13-.02.07-.02.11-.01.13.05l.02.04c.02.06.02.12-.04.16-.09.05-.2.07-.3.07-.46-.01-.59-.52-.61-.74Zm.1-.27c.18,0,.29-.13.29-.32s-.12-.32-.29-.32h-.41v.63h.41Z"/>
        <path class="cls-1" d="m22.72,4.4v.52h.66c.07,0,.12.04.12.11v.05c0,.07-.05.12-.12.12h-.66v.49h.78c.07,0,.11.05.11.12v.07c0,.07-.04.11-.11.11h-1.02c-.07,0-.11-.04-.11-.11v-1.67c0-.07.04-.11.11-.11h1.02c.07,0,.11.04.11.11v.07c0,.07-.04.12-.11.12h-.78Z"/>
      </g>
      <g>
        <path class="cls-1" d="m17.95,8.35c0,.32-.27.52-.66.52h-.7c-.07,0-.11-.04-.11-.11v-1.68c0-.07.04-.11.11-.11h.61c.38,0,.65.2.65.5,0,.17-.1.35-.33.41.28.04.43.24.43.46Zm-1.1-1.1v.54h.26c.28,0,.39-.13.39-.28,0-.16-.13-.26-.3-.26h-.34Zm.74,1.07c0-.15-.12-.29-.43-.29h-.32v.54h.44c.18.01.3-.1.3-.24Z"/>
        <path class="cls-1" d="m18.29,8.75v-1.67c0-.07.04-.11.11-.11h.13c.07,0,.11.04.11.11v1.67c0,.07-.04.11-.11.11h-.13c-.07.01-.11-.04-.11-.11Z"/>
        <path class="cls-1" d="m18.97,7.93c0-.54.43-.98,1-.98s1,.44,1,.98-.43.98-1,.98-1-.44-1-.98Zm1.63,0c0-.38-.28-.67-.63-.67s-.63.29-.63.67.27.67.63.67c.35-.01.63-.29.63-.67Z"/>
        <path class="cls-1" d="m21.3,8.75v-1.67c0-.07.04-.11.11-.11h.57c.6,0,.98.43.98.95s-.38.95-.98.95h-.57c-.06,0-.11-.05-.11-.12Zm.67-.18c.39,0,.63-.28.63-.65s-.24-.65-.63-.65h-.3v1.29h.3Z"/>
        <path class="cls-1" d="m23.06,8.74l.65-1.67c.02-.06.07-.1.13-.1h.17c.06,0,.11.02.13.1l.65,1.67c.02.07,0,.13-.09.13h-.13c-.07,0-.11-.02-.13-.1l-.11-.28h-.82l-.11.28c-.02.06-.06.1-.13.1h-.13c-.07,0-.11-.06-.07-.13Zm1.19-.52l-.33-.88-.33.88h.66Z"/>
        <path class="cls-1" d="m26.23,7.08v.07c0,.07-.04.12-.11.12h-.49v1.49c0,.07-.04.11-.11.11h-.12c-.07,0-.11-.04-.11-.11v-1.49h-.48c-.07,0-.11-.05-.11-.12v-.07c0-.07.04-.11.11-.11h1.32s.1.04.1.11Z"/>
        <path class="cls-1" d="m26.11,8.74l.65-1.67c.02-.06.07-.1.13-.1h.17c.06,0,.11.02.13.1l.65,1.67c.02.07,0,.13-.09.13h-.13c-.07,0-.11-.02-.13-.1l-.11-.28h-.82l-.11.28c-.02.06-.06.1-.13.1h-.13c-.06,0-.1-.06-.07-.13Zm1.19-.52l-.33-.88-.33.88h.66Z"/>
      </g>
      <g>
        <path class="cls-1" d="m17.16,11.05h-.32v.59c0,.07-.04.11-.11.11h-.13c-.07,0-.11-.04-.11-.11v-1.67c0-.07.04-.11.11-.11h.72c.39,0,.61.28.61.62,0,.28-.16.51-.43.57.02.2.13.45.32.45.05,0,.1-.01.13-.02.07-.02.11-.01.13.05l.02.04c.02.06.02.12-.04.16-.09.05-.2.07-.3.07-.46-.01-.59-.52-.61-.74Zm.1-.27c.18,0,.29-.13.29-.32s-.12-.32-.29-.32h-.41v.63h.41Z"/>
        <path class="cls-1" d="m18.72,10.14v.52h.66c.07,0,.12.04.12.11v.05c0,.07-.05.12-.12.12h-.66v.49h.78c.07,0,.11.05.11.12v.07c0,.07-.04.11-.11.11h-1.02c-.07,0-.11-.04-.11-.11v-1.67c0-.07.04-.11.11-.11h1.02c.07,0,.11.04.11.11v.07c0,.07-.04.12-.11.12h-.78Z"/>
        <path class="cls-1" d="m19.8,11.38c-.02-.07.01-.12.09-.13l.1-.02c.07-.01.11.01.15.07.06.11.2.18.37.18.22,0,.35-.1.35-.24,0-.12-.1-.2-.24-.26l-.27-.1c-.29-.1-.48-.29-.48-.52,0-.34.29-.55.65-.55.29,0,.51.13.6.35.04.07,0,.12-.07.15l-.09.02c-.07.02-.11,0-.15-.07-.05-.1-.16-.15-.29-.15-.16,0-.29.09-.29.23,0,.07.02.16.22.23l.27.1c.34.11.49.32.49.54,0,.35-.29.56-.7.56-.34.01-.59-.15-.7-.39Z"/>
        <path class="cls-1" d="m21.39,10.79c0-.54.43-.98,1-.98s1,.44,1,.98-.43.98-1,.98c-.57.01-1-.44-1-.98Zm1.63,0c0-.38-.27-.67-.63-.67s-.63.29-.63.67.27.67.63.67.63-.29.63-.67Z"/>
        <path class="cls-1" d="m23.69,11.03v-1.07c0-.07.04-.11.11-.11h.13c.07,0,.11.04.11.11v1.07c0,.28.2.43.41.43s.41-.15.41-.43v-1.07c0-.07.04-.11.11-.11h.13c.07,0,.11.04.11.11v1.07c0,.49-.35.74-.77.74s-.77-.26-.77-.74Z"/>
        <path class="cls-1" d="m26.35,11.05h-.32v.59c0,.07-.04.11-.11.11h-.13c-.07,0-.11-.04-.11-.11v-1.67c0-.07.04-.11.11-.11h.72c.39,0,.61.28.61.62,0,.28-.16.51-.43.57.02.2.13.45.32.45.05,0,.1-.01.13-.02.07-.02.11-.01.13.05l.02.04c.02.06.02.12-.04.16-.09.05-.2.07-.3.07-.48-.01-.6-.52-.61-.74Zm.1-.27c.18,0,.29-.13.29-.32s-.12-.32-.29-.32h-.41v.63h.41Z"/>
        <path class="cls-1" d="m27.4,10.79c0-.52.39-.98,1.04-.98.24,0,.41.06.57.17.06.05.07.1.02.16l-.05.06c-.04.06-.1.07-.16.02-.11-.06-.26-.1-.39-.1-.43,0-.67.3-.67.67s.24.67.67.67c.13,0,.28-.04.39-.1.07-.04.12-.04.16.02l.05.06c.04.06.04.11-.01.15-.16.11-.33.17-.59.17-.65,0-1.04-.45-1.04-.99Z"/>
        <path class="cls-1" d="m29.71,10.14v.52h.66c.07,0,.12.04.12.11v.05c0,.07-.05.12-.12.12h-.66v.49h.78c.07,0,.11.05.11.12v.07c0,.07-.04.11-.11.11h-1.02c-.07,0-.11-.04-.11-.11v-1.67c0-.07.04-.11.11-.11h1.02c.07,0,.11.04.11.11v.07c0,.07-.04.12-.11.12h-.78Z"/>
      </g>
    </g>
  </g>
</svg>