<?xml version="1.0" encoding="utf-8"?>
<!-- Generator: Adobe Illustrator 19.1.0, SVG Export Plug-In . SVG Version: 6.00 Build 0)  -->
<svg version="1.1" id="Layer_1" xmlns="http://www.w3.org/2000/svg" xmlns:xlink="http://www.w3.org/1999/xlink" x="0px" y="0px"
	 viewBox="-414 315.7 370.3 370.3" style="enable-background:new -414 315.7 370.3 370.3;" xml:space="preserve">
<style type="text/css">
	.st0{stroke:#000000;stroke-width:1.9003;}
</style>
<title>Layer 1</title>
<g>
	<path class="st0" d="M-229.1,310.2c-79.8,0-152.9,51.5-180,126.5c-27.4,75.9-2.8,162.9,59.9,213.6c62,50.2,151.4,56.2,219.6,14.6
		C-61.9,623.6-26,542.4-41.4,464.3C-58.9,376-139,310.2-229.1,310.2z M-251.5,327.8c-2.5,2.1-4.5,4.2-7.4,1.1
		C-256.4,328.5-254,328.1-251.5,327.8z M-76.4,476.6c9.5-1.5,15.1,13,22.3,15.9c0.1,1.2,0.1,2.4,0.1,3.6c-5.1-2.6-5.9-4.4-12.9-6.6
		C-70.9,487.5-77.5,481.1-76.4,476.6C-72.4,475.9-77.5,481.1-76.4,476.6z M-229.1,676.7c-11.2,0-22.1-1.1-32.7-3.1
		c4.8-2.8,8.9-5.9,14.6-4.5h3.4c4.9-1.2,8.7-10.9,10.9-10.9c1.7-2.5,6-0.9,8-3.7c3.9-5.3,2.1-12.3-5.3-15.3
		c-5.9-2.4-7.2,1.7-12.9,1.4c-8.4-0.5-16.1-10-22.1-14.8c-6.7-5.3-14.7-8.6-21.1-14.2c-7.1-6.2-10.7-11.1-19.3-15.2
		c-9.1-4.3-14.5-9-22.2-14.7c-7.7-5.7-14.8-2.8-22.5-6.3c-9.1-4.2-6.2-10.3-7.5-18.3c-0.7-4.5-2.6-7-3.4-10.9
		c-0.6-3.2-2.4-4.1-2.5-7.5c0-3.5,7.5-4.6,4-9.3c-3.1-4.2-9.8,1.8-13.9-2.6c-8.3-9.2,1.7-32.6,16.1-24.2c4.2,2.4,9.7,10.7,11.2,15.2
		c0.3,0.8,1.8,14.7,0.3,14.4c7.7,1.7,6.8-12.9,9.6-16.7c5.6-7.7,8.9-2.6,15-5.9c2-1.1,0.9-6.7,3.3-8.4c2.1-1.4,7.2,0.4,9.7-0.4
		c3.2-1,5.4-4.6,8.6-6c2.2-1,5.7,2.8,7.4,1.5c1.8-1.4-1.7-9,4.3-12.1c7.9-4.1,11.6,3.9,19.1-3.7c12.3-12.6-5.4-26.7-11.5-38
		c-2.3-4.3-2.8-12.7-8.3-7.1c-2.6,2.6-0.1,6.9-1.4,9.7c-1.8,3.8-4.8,4.1-6.8,7.4c-3.5,5.7-2.7,14.4-10.8,7.1
		c-4-3.6-0.2-22.8,0.8-28.6c1.5-7.8,5.5-13.5,14.1-15.6c4.4-1,13.6,3,17.1,0c11.6-9.8-6.5-7.9-7.7-8.3c-12.2-4.2-6.9-13.6-11.3-22.3
		c-0.9-12.7,1.7-15.2,10.3-21.3c11.9-11.9-3.2-15.5-15.4-14.3c-15.7,1.6-8.6,16.7-19.4,27.4c-13.5,8.6-11.5,25.3-24,35.3
		c-6.7,5.4-15.7,9-22.8,14.2c-9.8,7.2-9.9,10.2-12.8,21c-2.1,7.9-4.2,12.8-4.8,21.1c-0.5,6.9-1.7,14.4-3,21.3
		c-3,15.5,0.1,24.1,4.4,40.5c9,12,9.9,23.9,16.2,37.1c4.5,9.5,24.1,12.6,20.2,23.9c-1.5,4.3-9.2,5.1-9.4,9.9
		c-0.1,2.9,8.3,12.4,10.3,16.6c6.1,12.9,23.2,16.4,22.1,31.9c-62.4-39.7-93.8-116.4-76.7-188.4c15.8-66.4,70.9-119.1,138.1-131.6
		c0.7,6.8-11.6,3.9-14,5.4c-1,0.6-7.8,7.2-2,7.1c-1.1,0.4-6,3-5.9,4.4c0.2,3.5,19.3-3.9,19.3-3.9c9.2-2.6,18.9-4.3,28.2-3.1
		c6.4,0.8,8.4,0.6,14.9,0.4c3-0.1,4.4-2.4,7.4-1.3c-0.8-0.3,1.6,5.8,2.4,6.4c4,2.9,6.4,3.5,9.8,7.4c3.3,3.8,1.6,6.3,6.7,9.6
		c1.2,0.8,7.1-0.3,8.7,0.2c9.8,3.4,15.2,8.2,20.4,16.1c3.5,5.3,7.1,10.4,9.1,17c3.2,10.8,2.3,9.8-8.7,4c-1.8-0.4-3.2-1.4-5.1-1.4
		c-4.1-1-4.3,0.3-7.3,6.3c-3,11.1,6.5,37.5,17,39.8c29.4,6.3-3.6-22.9-0.6-27.4c-1.1,1.6,19.5,16.2,19.7,20.3
		c0.4,6-6.9,8.8-9.8,12.7c-4.2,5.8-3.6,7-5.7,13.7c-0.9,2.7-5.4,9.5-5.2,12c0.5,4.9,7.3,3.6,7.8,7.8c1.8,13.3-21.3,10.8-10.5,26.6
		c3.7,5.5,15.2,10.4,20.3,2.3c3.5-5.6,0-18.7,2-24.4c7.2-20,14.3,2.8,24.6-4.1c10.7-7.2-15.3-8.6-13.2-11.8
		c6.5-10.4,18.9,5.4,25.3,2.8c0.4-1.9-2.1-8.1-2.2-10.2c2.5-1.6,3.1-3.8,2-6.7c-0.9-1.4-1.8-2.7-2.7-4.1c-1.5-7.5-7.9-18.5,2.9-20.9
		c4.4-1,12,2.8,12.9,7.5c1.1,5.3-4.8,8.4-7,12.4c-2.9,5.4-4.5,9-1.8,14.7c1.4,3,4.9-2.4,5.2-1.6c-0.2,1.5,0.1,3,0.8,4.3
		c4.4,0.3,5.4-11.1,8.2-12.7c2.4-1.3,4.1,8.2,4.1,9.3c0.6,7.4-3.8,12.7-8.4,17.8c-8.9,10-10.1,20.9-25.8,16.5
		c-7.8-2.2-3.8-5.2-11.2-0.9c-5.1,3-9.7,10.4-14.6,14.3c-13.3,10.6-12.3,22-20.9,35.1c-7.8,11.9-4.9,20.9-4.5,33.1
		c0.2,6.6-2.5,5.1,0.7,11.1c1.3,2.4,6.9,7.8,9.5,9.1c9.4,5,20.5,2,29.7-1.8c2.7-1.1,30.7-18.8,31.4-16.1c1.1,4-0.5,8.5,0.6,12.2
		c0.5,1.5,4.1,2.3,4.9,4.8c1.2,3.9-2.7,10.1-4.1,13.3C-127.8,652.7-175.7,676.7-229.1,676.7z"/>
	<path class="st0" d="M-200.3,355.6c-2.7-10.9-9.9-6.4-16.8-5.7c-9.8,1-9.7-2.5-18.1-3.7c-6.2-0.9-15.1,3.3-21.2,4.3
		c-7,1.2-17.8-0.3-14.5,11.1c-2.2,5.5-10.5,13.8-10.2,19.4c0.4,8.4,10.3,9,16.6,11.1c2.7,0.9,8.4,4.2,11.6,4.2
		c4.7,0.1,5-2.2,9.2-2.8c5.9-0.8,12.1-0.7,18.1-1c9.1-0.4,20.8,3.3,27.5-5.2c1.5-1.8,7.3-14,7.2-15.7
		C-191.3,366.2-198.9,361.5-200.3,355.6C-201.4,351.6-198.7,362.1-200.3,355.6z"/>
	<path class="st0" d="M-213.9,416c0.6-3.1-3.5-16.7-5.8-18.3c-2.8-2-14.2,1-18.7,1c-3.6,1.7-5.6,1.2-9.5,1.4c-4,6.3,1,10.3,1.9,18.2
		c0.7,5.7,0.9,6.4-0.1,11.5c-0.9,4.8-2.3,9.9-3.2,15.1c-1.2,4.7,4.9,12.8,9.8,11.6c2.6-0.6,7.2-9,8.9-11.4
		c3.5-4.8,7.1-8.1,11.5-12.1c2.8-2.5,6.2-2.4,7.6-6.5C-210,422.5-214.7,419.9-213.9,416C-213.4,413.3-214.4,418.6-213.9,416z"/>
</g>
</svg>
