<?xml version="1.0" encoding="utf-8"?>
<!-- Generator: Adobe Illustrator 19.1.0, SVG Export Plug-In . SVG Version: 6.00 Build 0)  -->
<svg version="1.1" id="Layer_1" xmlns="http://www.w3.org/2000/svg" xmlns:xlink="http://www.w3.org/1999/xlink" x="0px" y="0px"
	 viewBox="-420.2 310.2 53.7 53.7" style="enable-background:new -420.2 310.2 53.7 53.7;" xml:space="preserve">
<title>Layer 1</title>
<g>
	<path d="M-393.4,310.2c-11.2,0-21.5,7.2-25.3,17.8c-3.8,10.7-0.4,22.9,8.4,30c8.7,7.1,21.3,7.9,30.8,2.1
		c9.5-5.8,14.6-17.2,12.4-28.2C-369.5,319.5-380.7,310.2-393.4,310.2z M-396.5,312.7c-0.3,0.3-0.6,0.6-1,0.2
		C-397.2,312.8-396.9,312.8-396.5,312.7z M-371.9,333.6c1.3-0.2,2.1,1.8,3.1,2.2c0,0.2,0,0.3,0,0.5c-0.7-0.4-0.8-0.6-1.8-0.9
		C-371.1,335.1-372.1,334.2-371.9,333.6C-371.4,333.5-372.1,334.2-371.9,333.6z M-393.4,361.7c-1.6,0-3.1-0.1-4.6-0.4
		c0.7-0.4,1.2-0.8,2.1-0.6h0.5c0.7-0.2,1.2-1.5,1.5-1.5c0.2-0.4,0.8-0.1,1.1-0.5c0.5-0.7,0.3-1.7-0.7-2.1c-0.8-0.3-1,0.2-1.8,0.2
		c-1.2-0.1-2.3-1.4-3.1-2.1c-0.9-0.7-2.1-1.2-3-2c-1-0.9-1.5-1.6-2.7-2.1c-1.3-0.6-2-1.3-3.1-2.1c-1.1-0.8-2.1-0.4-3.2-0.9
		c-1.3-0.6-0.9-1.4-1.1-2.6c-0.1-0.6-0.4-1-0.5-1.5c-0.1-0.4-0.3-0.6-0.3-1.1c0-0.5,1.1-0.6,0.6-1.3c-0.4-0.6-1.4,0.3-1.9-0.4
		c-1.2-1.3,0.2-4.6,2.3-3.4c0.6,0.3,1.4,1.5,1.6,2.1c0,0.1,0.3,2.1,0,2c1.1,0.2,1-1.8,1.4-2.3c0.8-1.1,1.2-0.4,2.1-0.8
		c0.3-0.2,0.1-0.9,0.5-1.2c0.3-0.2,1,0.1,1.4-0.1c0.4-0.1,0.8-0.7,1.2-0.8c0.3-0.1,0.8,0.4,1,0.2c0.3-0.2-0.2-1.3,0.6-1.7
		c1.1-0.6,1.6,0.5,2.7-0.5c1.7-1.8-0.8-3.8-1.6-5.3c-0.3-0.6-0.4-1.8-1.2-1c-0.4,0.4,0,1-0.2,1.4c-0.2,0.5-0.7,0.6-1,1
		c-0.5,0.8-0.4,2-1.5,1c-0.6-0.5,0-3.2,0.1-4c0.2-1.1,0.8-1.9,2-2.2c0.6-0.1,1.9,0.4,2.4,0c1.6-1.4-0.9-1.1-1.1-1.2
		c-1.7-0.6-1-1.9-1.6-3.1c-0.1-1.8,0.2-2.1,1.5-3c1.7-1.7-0.4-2.2-2.2-2c-2.2,0.2-1.2,2.3-2.7,3.9c-1.9,1.2-1.6,3.6-3.4,5
		c-0.9,0.8-2.2,1.3-3.2,2c-1.4,1-1.4,1.4-1.8,3c-0.3,1.1-0.6,1.8-0.7,3c-0.1,1-0.2,2-0.4,3c-0.4,2.2,0,3.4,0.6,5.7
		c1.3,1.7,1.4,3.4,2.3,5.2c0.6,1.3,3.4,1.8,2.8,3.4c-0.2,0.6-1.3,0.7-1.3,1.4c0,0.4,1.2,1.7,1.4,2.3c0.9,1.8,3.3,2.3,3.1,4.5
		c-8.8-5.6-13.2-16.4-10.8-26.5c2.2-9.3,10-16.7,19.4-18.5c0.1,1-1.6,0.5-2,0.8c-0.1,0.1-1.1,1-0.3,1c-0.2,0.1-0.8,0.4-0.8,0.6
		c0,0.5,2.7-0.5,2.7-0.5c1.3-0.4,2.7-0.6,4-0.4c0.9,0.1,1.2,0.1,2.1,0.1c0.4,0,0.6-0.3,1-0.2c-0.1,0,0.2,0.8,0.3,0.9
		c0.6,0.4,0.9,0.5,1.4,1c0.5,0.5,0.2,0.9,0.9,1.3c0.2,0.1,1,0,1.2,0c1.4,0.5,2.1,1.2,2.9,2.3c0.5,0.7,1,1.5,1.3,2.4
		c0.5,1.5,0.3,1.4-1.2,0.6c-0.2-0.1-0.4-0.2-0.7-0.2c-0.6-0.1-0.6,0-1,0.9c-0.4,1.6,0.9,5.3,2.4,5.6c4.1,0.9-0.5-3.2-0.1-3.8
		c-0.2,0.2,2.7,2.3,2.8,2.8c0.1,0.8-1,1.2-1.4,1.8c-0.6,0.8-0.5,1-0.8,1.9c-0.1,0.4-0.8,1.3-0.7,1.7c0.1,0.7,1,0.5,1.1,1.1
		c0.3,1.9-3,1.5-1.5,3.7c0.5,0.8,2.1,1.5,2.9,0.3c0.5-0.8,0-2.6,0.3-3.4c1-2.8,2,0.4,3.5-0.6c1.5-1-2.1-1.2-1.9-1.7
		c0.9-1.5,2.7,0.8,3.6,0.4c0.1-0.3-0.3-1.1-0.3-1.4c0.3-0.2,0.4-0.5,0.3-0.9c-0.1-0.2-0.3-0.4-0.4-0.6c-0.2-1.1-1.1-2.6,0.4-2.9
		c0.6-0.1,1.7,0.4,1.8,1c0.1,0.7-0.7,1.2-1,1.7c-0.4,0.8-0.6,1.3-0.3,2.1c0.2,0.4,0.7-0.3,0.7-0.2c0,0.2,0,0.4,0.1,0.6
		c0.6,0,0.8-1.6,1.2-1.8c0.3-0.2,0.6,1.1,0.6,1.3c0.1,1-0.5,1.8-1.2,2.5c-1.2,1.4-1.4,2.9-3.6,2.3c-1.1-0.3-0.5-0.7-1.6-0.1
		c-0.7,0.4-1.4,1.5-2,2c-1.9,1.5-1.7,3.1-2.9,4.9c-1.1,1.7-0.7,2.9-0.6,4.7c0,0.9-0.4,0.7,0.1,1.6c0.2,0.3,1,1.1,1.3,1.3
		c1.3,0.7,2.9,0.3,4.2-0.3c0.4-0.2,4.3-2.6,4.4-2.3c0.2,0.6-0.1,1.2,0.1,1.7c0.1,0.2,0.6,0.3,0.7,0.7c0.2,0.5-0.4,1.4-0.6,1.9
		C-379.1,358.3-385.9,361.7-393.4,361.7z"/>
	<path d="M-389.3,316.6c-0.4-1.5-1.4-0.9-2.4-0.8c-1.4,0.1-1.4-0.4-2.5-0.5c-0.9-0.1-2.1,0.5-3,0.6c-1,0.2-2.5,0-2,1.6
		c-0.3,0.8-1.5,1.9-1.4,2.7c0.1,1.2,1.4,1.3,2.3,1.6c0.4,0.1,1.2,0.6,1.6,0.6c0.7,0,0.7-0.3,1.3-0.4c0.8-0.1,1.7-0.1,2.5-0.1
		c1.3-0.1,2.9,0.5,3.9-0.7c0.2-0.3,1-2,1-2.2C-388.1,318.1-389.1,317.4-389.3,316.6C-389.5,316.1-389.1,317.5-389.3,316.6z"/>
	<path d="M-391.2,325.1c0.1-0.4-0.5-2.3-0.8-2.6c-0.4-0.3-2,0.1-2.6,0.1c-0.5,0.2-0.8,0.2-1.3,0.2c-0.6,0.9,0.1,1.4,0.3,2.6
		c0.1,0.8,0.1,0.9,0,1.6c-0.1,0.7-0.3,1.4-0.4,2.1c-0.2,0.7,0.7,1.8,1.4,1.6c0.4-0.1,1-1.3,1.3-1.6c0.5-0.7,1-1.1,1.6-1.7
		c0.4-0.4,0.9-0.3,1.1-0.9C-390.7,326-391.3,325.7-391.2,325.1C-391.2,324.7-391.3,325.5-391.2,325.1z"/>
</g>
</svg>
