<?xml version="1.0" encoding="utf-8"?>
<!-- Generator: Adobe Illustrator 19.1.0, SVG Export Plug-In . SVG Version: 6.00 Build 0)  -->
<svg version="1.1" id="Layer_1" xmlns="http://www.w3.org/2000/svg" xmlns:xlink="http://www.w3.org/1999/xlink" x="0px" y="0px"
	 viewBox="-414 315.7 370.3 370.3" style="enable-background:new -414 315.7 370.3 370.3;" xml:space="preserve">
<style type="text/css">
	.st0{stroke:#000000;stroke-width:1.9003;}
</style>
<title>Layer 1</title>
<g>
	<path class="st0" d="M-229.1,310.2c-105.5,0-191.3,85.8-191.3,191.3s85.8,191.3,191.3,191.3c105.5,0,191.3-85.8,191.3-191.3
		S-123.6,310.2-229.1,310.2z M-251.5,327.8c-2.5,2.1-4.5,4.2-7.4,1.1C-256.4,328.5-254,328.1-251.5,327.8z M-76.4,476.6
		c4-0.6,8.4,4,12.3,6.5c3.8,2.4,4.7,7.3,10,9.4c0.1,1.2,0.1,2.4,0.1,3.6c-5.1-2.6-5.9-4.4-12.9-6.6
		C-70.9,487.5-77.5,481.1-76.4,476.6z M-229.1,676.7c-11.2,0-22.1-1.1-32.7-3.1c3.5-2.1,9.4-5.8,11.9-5.2c0.9,0.2,1.8,0.5,2.7,0.7
		h3.4c1.5-0.4,3.8-0.7,5.4-1.4c3.4-1.4,1.8-9.5,5.4-9.5c1-1.4-1.5-2,1.4-2c3.7,0,10.9-2,9.5-7.5c-0.7-2.9-5.3-6.7-8.1-9.5
		c-5.4-5.4-8.6,3.5-12.9,1.4c-4.9-2.5-10.4-2.9-14.3-8.1c-4.2-5.5-7.8-5.8-11.5-9.5c-4-4-9.2-4.9-13.6-8.1
		c-3.7-2.8-7.8-6.8-10.9-10.9c-2.6-3.5-8-5.8-12.2-7.5c-5.5-2.2-9.6-4.3-14.9-7.5c-4.1-2.5-6.7-8.2-11.5-10.2
		c-3.4-1.4-6.3-3-10.5-2.2c-4.9,1-7.2-0.7-11.8-3.6c-3.8-2.3-3.5-5.2-3.5-7.8c0-2.7,0-5.4,0-8.1c0-9.2,2.1-3.6-3.4-10.9
		c-4.7-6.2-3.7-6.5,0.7-10.9c3.9-3.9,0.2-9.6-5.4-6.8c-4.1,2.1-10.2-1.1-8.8-6.8c1.1-4.5-1.5-9.2,0.7-13.6c2.3-4.6,4.9-9.1,11.5-7.5
		c5.7,1.4,8.2,2.8,10.9,8.1c1.8,3.7,7.5,10.1,7.5,14.3c0,2.8-6.1,11.9,1.4,8.1c6.2-3.1,1.9-6.5,4.8-12.2c2.2-4.4,5.4-11.7,10.2-8.8
		c6.9,4.1,6.7-0.4,8.1-6.1c1.7-6.7,7.1-1.2,11.5-3.4c4.1-2,6.8-8.2,12.2-5.4c8.4,4.2,1-2.9,3.4-6.1c4.3-5.8,4.3-6.2,11.5-4.8
		c5.5,1.1,10.7,1.9,12.2-4.1c0.5-2,8.3-8.6,4.1-12.9c-2.8-2.8-4.1-11.1-7.5-13.6c-4.5-3.4-5.4-6.1-8.1-11.5c-1-1.9-3.4-12.9-7.5-8.8
		c-3.6,3.6-0.7,11.5-3.4,14.3c-4.2,4.2-8.1,4.2-8.1,10.9c0,7.1-7.4,3.6-9.5-0.7c-2.3-4.5-1.5-9.1,0.7-13.6
		c1.3-2.6,3.1-10.1,1.4-13.6c-2.5-4.9,2-6.3,5.4-10.9c3.7-4.9,6.4-4.8,12.9-4.8c2.1,0,11.6,1.3,12.9,0c3.2-3.2,3.4-12.9-3.4-9.5
		c-6.8,3.4-9-0.9-12.9-6.1c-3.9-5.2-0.2-9.9-2.7-14.9c-0.9-12.7,1.7-15.2,10.3-21.3c3.4-3.4,10.6-8.3,3.2-11.2
		c-5.3-2.1-7.4-2.8-13.6-2.8c-2.7,0-11.5-1.4-13.6,0.7c-4.1,4.1-2,7.4-2,12.9c0,4.9-5.5,10.2-8.8,13.6c-7.5,4.8-6.9,4.1-10.5,11.1
		c-0.7,1.4,0.4,3-0.3,4.5c-2.3,4.5-4.5,9-6.8,13.6c-2.5,5.1-9.6,7.9-14.3,10.2c-5.2,2.6-9.4,7.4-14.9,10.2
		c-6.3,3.2-12.5,9.2-12.5,16.3c0,6.3-1,6.5-3.6,11.7c-2.1,4.3-2.9,8.9-1.6,14.1c1.1,4.3-0.5,5.9-1.4,8.9c-1.5,4.9-1.8,8-1.6,15.5
		c0.1,4.3-3,0.9-3.1,10.1c0,2.9,3.7,12.9,7.4,27.3c1.7,2.2,8.3,10.1,8.8,12.2c1.1,4.5,2.2,8.9,3.4,13.6c1.2,4.7,3.6,9,4.8,13.6
		c1,4.2,4,5.9,7.5,7.6c4.3,2.1,6.4,0.4,11.5,5.9c3.1,3.3,1.4,9.8-3.4,12.2c-3.4,1.7-9.9,6.6-2.7,10.2c4.3,2.1,6.1,6.9,7.5,12.2
		c1.2,4.9,4.9,12.1,10.9,13.6c4.5,1.1,8.6,5.7,10.9,10.2c0.7,1.4,0.6,4.8,0.4,8.1c-48.9-31.1-81.4-85.8-81.4-147.9
		c0-85.5,61.6-157,142.8-172.2c0.2,2.1-3.9,5.3-9.1,5.3c-5.1,0-10.2-0.6-8.8,4.8c0.5,2.1,1.5,2.4,2,2.4c-0.6,0.2-1.9,0.9-4.7,3
		c-5.1,3.8,7.9,1.6,9.5,0.7c4.7-2.8,8-3.4,13.6-3.4c4.1,0,8.7-3.2,12.9-4.1c5.9-1.2,10.4,1.1,14.9,3.4c2,1,11-1.8,12.9-2.7
		c7.5-3.8,3.7,1.3,5.4,4.8c1.1,2.3,8.4,1.9,10.9,6.8c3,6.1,0.6,8.1,7.5,11.5c0.4,0.2,6.9-2.3,13.6,2.7c4.4,3.3,8.3,1.6,12.2,6.8
		c0.9,1.2,2.2,2,2.7,3.4c1.8,5-1,2,2.4,6.6c0.7,0.9,2.4-0.3,3.4,4.8c1.9,9.9,9.4,12.9,6.6,17c-2.4,3.5-2.7,0.7-11.4-3.9
		c-0.4-0.1-1.2-0.7-1.4-0.7c-1.1,0-1.9-0.7-2.9-0.7c-0.3,0-0.6,0-0.8,0c-4.1-1-4.3,0.3-7.3,6.3c-2.6,9.7,1.3,8.5,2.4,13.1
		c1,4,3.4,9.2,3.4,13.2c0,5.6,1,10.8,6.4,12.2c6.5,1.6,6.4,2,12.7,2c7,0,3.6-8.4,2-11.5c-2.5-5-4.8-8.7-9.5-12.2
		c-2.9-2.2-0.9-9.3,3.4-0.7c3,6.1,6.3,7.5,11.5,10.2c5.9,3,3.8,9.7,0.7,12.9c-3.8,3.8-6.4,5.8-10.2,9.5c-2.3,2.3-1.9,10.3-2.7,13.6
		c-1.3,5.2-7.4,7.6-3.4,11.5c3.8,3.8,8.8,1.2,5.4,9.5c-2.4,5.9-5.6,5.2-9.5,8.1c-4.8,3.6-3.2,7.1-0.7,12.2c2.7,5.5,1.4,7.5,8.8,7.5
		c7,0,7.2,1.7,12.2-3.4c2.3-2.3-0.7-10.4,0-13.4c2-8.1,5.2-3.1,2-11c-1.5-3.8,3.9-9.7,8-9.7c4.1,0,11.6,6.8,16.6,5.6
		c7.3-1.8-1.9-8.1-5.6-8.1c-4.7,0-12.5-3.3-4.1-5.4c5.5-1.4,3.1-1.9,10-0.2c2.9,0.7,3.1,2.2,5.2,4.8c1.6,2,3,1.3,6.5,0
		c1.1-4.8-3.5-3.9-3.7-6.6c-0.2-3.2,2.8-4.4,3.7-6.1c2.1-4.1-4.2-8.4-5.1-12c-1.1-4.5-2.4-17.3,2.9-17.3c5.3,0,13.6,1.6,15.1,7.6
		c1.3,5.3-6.1,9.2-8.1,14.3c-1.9,4.8-4.1,9.5-0.7,12.9c3.5,3.5,5.4-6.9,5.4,1.4c0,5.5,7.1-7.5,7.5-8.8c1.9-7.5,5.4,3,5.4,6.8
		c0,5.4-1.5,9.9-4.8,14.3c-3.5,4.7-7.5,4.8-10.2,10.2c-3.2,6.5-0.7,7.5-7.5,10.9c-4.4,2.2-11,0.5-13.6-2c-5.2-5.2-5.9-4.2-10.9,2
		c-3.7,4.6-7.1,7.1-10.9,10.9c-3.9,3.9-9.8,4.6-12.2,9.5c-2.2,4.3-5.2,9.9-4.1,14.3c1.4,5.6-3.3,9.4-6.8,12.9
		c-3.4,3.4-5.1,10.1-6.1,14.3c-1.7,6.7,0,6.8,2.7,12.2c1.2,2.4-2.9,10.9-3.4,13.6c-0.4,2.3,8.7,8.6,10.2,11.5
		c1.9,3.8,9.2,1,12.2,4.1c2.6,2.6,10.2-0.8,12.9-1.4c5.4-1.1,8.4-4.4,13.6-5.4c3.1-0.6,6.6-6.7,10.9-8.8c4.8-2.4,8.7-2.6,12.9-4.8
		c3.4-1.7-3.4,9.8,0,11.5c4.8,2.4,7.8,2.9,6.1,9.5c-0.9,3.5-2.3,6.3-3.6,9.4C-127.8,652.7-175.7,676.7-229.1,676.7z"/>
	<path class="st0" d="M-200.3,355.6c-1-4-5.6-9.3-10.2-8.1c-5.1,1.3-8,4.1-13.6,4.1c-5.3,0-7.7-6.7-12.9-5.4
		c-5.1,1.3-9.6,2.7-14.9,4.1c-4.8,1.2-8.6-0.6-13.6,0.7c-6.2,1.5-6.8,6.2-5.4,10.9c-1.6,3.9-1.2,6.6-4.1,9.5
		c-2.9,2.9-8.5,7.4-6.1,12.2c2.7,5.5,6.8,6.1,12.2,7.5c3.3,0.8,10.5,3.2,13.6,4.8c5.4,2.7,8,1.5,11.5-2c3.9-3.9,8.2,0.7,12.9,0.7
		c4.4,0,10-5.6,12.2-3.4c7,7,7.7-0.1,13.6,1.4c5.8,1.4,7.6-5.8,8.8-10.9c1.1-4.3,8.1-8.8,4.1-12.9
		C-196.9,363.8-198.7,362.1-200.3,355.6z"/>
	<path class="st0" d="M-213.9,416c0.5-2.7-0.6-7.3-2-9.2c-2.3-3.1-2.5-4.3-3.1-7.8c-0.4-2.8-1.7-3.7-4.4-2.4c-3.1,1.6-5,2.4-8.5,2.4
		c-2,0-4.2-0.3-6.4-0.3c-3.6,1.7-5.6,1.2-9.5,1.4c-0.8,1.2-1.6,2.5-2.4,3.7c-1.7,2.7,1.4,0.6,3.1,4.8c1.1,2.9-0.3,4.5,0.3,7.5
		c0.6,3.2,2.9,5.7,3.4,9.2c0.2,1.2-2.9,5.1-3.7,6.1c-3.1,3.6-1.3,9.1-2,13.6c-0.7,2.9,3.4,6,3.4,8.8c0,2.3,2.9,3.1,4.8,3.1
		c3.6,0,3.8-0.4,4.8-2.7c0.7-1.8,1-5.8,2.7-6.8c1.2-0.7,5.4-3.5,5.4-4.8c0-2.6,4-5,5.8-6.8c2-2,4.8-3.6,7.1-4.8
		c3.3-1.7,4.4-2.7,4.4-6.4C-210.9,422-214.4,418.6-213.9,416z"/>
</g>
</svg>
