<?xml version="1.0" encoding="utf-8"?>
<!-- Generator: Adobe Illustrator 19.1.0, SVG Export Plug-In . SVG Version: 6.00 Build 0)  -->
<svg version="1.1" id="Layer_1" xmlns="http://www.w3.org/2000/svg" xmlns:xlink="http://www.w3.org/1999/xlink" x="0px" y="0px"
	 viewBox="0 0 1600 1000" style="enable-background:new 0 0 1600 1000;" xml:space="preserve">
<style type="text/css">
	.st0{fill:#231F20;}
</style>
<path class="st0" d="M820.4,514.2l-4.3-2.7l-3.6-6.3c-0.1-0.2-0.2-0.3-0.4-0.4c0-1.3-0.2-2.7-0.5-3.9l1.8,1.2
	c0.2,0.1,0.4,0.2,0.6,0.2c0.1,0,0.1,0,0.2,0l5.2-0.9c0.6-0.1,1-0.7,0.9-1.3c-0.1-0.6-0.7-1-1.3-0.9l-4.8,0.8l-4.2-2.8
	c-0.5-0.8-1-1.4-1.6-2.1l3.7-2.1c0.2-0.1,0.4-0.4,0.5-0.6l1.6-4.8c0.2-0.6-0.1-1.2-0.7-1.4c-0.6-0.2-1.2,0.1-1.4,0.7l-1.5,4.4
	l-4,2.2c-0.4-0.3-0.9-0.6-1.3-0.8c1.5-0.3,2.3-1.1,1.5-3.1c-0.5-1.2-2.1-2.3-3.8-2.9l1.6-3.7c0.6-0.2,1-0.7,1-1.4
	c0-0.8-0.6-1.4-1.4-1.4c-0.8,0-1.4,0.6-1.4,1.4c0,0.2,0,0.4,0.1,0.5l-1.7,4c-0.4-0.1-0.7-0.1-1-0.1c-0.4,0-0.9,0.1-1.3,0.2l-1.7-4
	c0.1-0.2,0.1-0.4,0.1-0.6c0-0.8-0.6-1.4-1.4-1.4c-0.8,0-1.4,0.6-1.4,1.4c0,0.6,0.4,1.2,1,1.4l1.6,3.8c-1.6,0.6-3.2,1.6-3.9,2.7
	c-1.1,1.9-0.1,2.7,1.5,3.1c-0.5,0.3-1,0.6-1.5,0.9l-3.9-2.2l-1.5-4.4c-0.2-0.6-0.8-0.9-1.4-0.7c-0.6,0.2-0.9,0.8-0.7,1.4l1.6,4.8
	c0.1,0.3,0.3,0.5,0.5,0.6l3.6,2c-0.5,0.5-1,1.1-1.4,1.8l-4.3,2.8l-4.8-0.8c-0.6-0.1-1.2,0.3-1.3,0.9c-0.1,0.6,0.3,1.2,0.9,1.3
	l5.2,0.9c0.1,0,0.1,0,0.2,0c0.2,0,0.4-0.1,0.6-0.2l1.9-1.1c-0.4,1.3-0.4,2.8-0.4,4.3c0,0,0,0,0,0c0,0.1-0.3,0.1-0.4,0.2l-3.7,6.3
	l-4.3,2.7c-0.5,0.3-0.7,1-0.4,1.5c0.2,0.3,0.6,0.5,0.9,0.5c0.2,0,0.4-0.1,0.6-0.2l4.5-2.9c0.2-0.1,0.3-0.2,0.4-0.4l2.4-4.2
	c1.3,5.3,5.4,9.4,10.5,10l1.2-13.2l1.4,13.2c5.1-0.6,9.3-4.8,10.6-10.2l2.6,4.4c0.1,0.2,0.2,0.3,0.4,0.4l4.5,2.9
	c0.2,0.1,0.4,0.2,0.6,0.2c0.4,0,0.7-0.2,0.9-0.5C821.1,515.3,820.9,514.6,820.4,514.2z M795.1,511.6c-1.1,0.4-2.3-0.4-2.7-1.6
	s0.2-2.5,1.3-2.9s2.3,0.4,2.7,1.6C796.7,509.9,796.2,511.2,795.1,511.6z M796.8,501.4c-0.3,0.9-1.2,1.3-1.9,1.1
	c-0.8-0.3-1.1-1.2-0.8-2s1.2-1.3,1.9-1.1C796.7,499.6,797.1,500.5,796.8,501.4z M803.7,498.9c0.8-0.3,1.6,0.2,1.9,1.1
	s-0.1,1.8-0.8,2c-0.8,0.3-1.6-0.2-1.9-1.1C802.6,500.1,803,499.2,803.7,498.9z M807.2,510c-0.4,1.2-1.6,1.9-2.7,1.6
	s-1.7-1.6-1.3-2.9c0.4-1.2,1.6-1.9,2.7-1.6S807.6,508.8,807.2,510z"/>
</svg>
