<?xml version="1.0" encoding="utf-8"?>
<!-- Generator: Adobe Illustrator 19.1.0, SVG Export Plug-In . SVG Version: 6.00 Build 0)  -->
<svg version="1.1" id="Layer_1" xmlns="http://www.w3.org/2000/svg" xmlns:xlink="http://www.w3.org/1999/xlink" x="0px" y="0px"
	 viewBox="0 0 334 334" style="enable-background:new 0 0 334 334;" xml:space="preserve">
<path d="M167,334c92.1,0,167-74.9,167-167C334,74.9,259.1,0,167,0C74.9,0,0,74.9,0,167C0,259.1,74.9,334,167,334z M167,10
	c86.6,0,157,70.4,157,157c0,31.1-9.1,60.1-24.8,84.6c-6-7.2-13-13.9-20.9-20C250,209.7,210.5,196,166.9,196
	c-32.7,0-63.1,7.7-88.2,20.8c-17.6,9.2-32.6,21-44,34.7C19.1,227,10,198,10,167C10,80.4,80.4,10,167,10z"/>
</svg>
