<?xml version="1.0" encoding="utf-8"?>
<!-- Generator: Adobe Illustrator 19.1.0, SVG Export Plug-In . SVG Version: 6.00 Build 0)  -->
<svg version="1.1" id="Layer_1" xmlns="http://www.w3.org/2000/svg" xmlns:xlink="http://www.w3.org/1999/xlink" x="0px" y="0px"
	 viewBox="0 0 57.7 57.7" style="enable-background:new 0 0 57.7 57.7;" xml:space="preserve">
<style type="text/css">
	.st0{fill:#231F20;}
</style>
<ellipse transform="matrix(0.7381 -0.6747 0.6747 0.7381 -9.9515 24.4811)" class="st0" cx="26.6" cy="25.1" rx="3.4" ry="2.7"/>
<ellipse transform="matrix(0.9957 -9.231137e-02 9.231137e-02 0.9957 -1.4426 2.201)" class="st0" cx="23.1" cy="16.7" rx="3.6" ry="2.8"/>
<ellipse transform="matrix(0.3627 0.9319 -0.9319 0.3627 33.6876 -16.5535)" class="st0" cx="28.9" cy="16.4" rx="2.9" ry="2.3"/>
<ellipse transform="matrix(0.9279 0.3729 -0.3729 0.9279 9.6716 -6.057)" class="st0" cx="20.5" cy="22" rx="3.8" ry="2.8"/>
<ellipse transform="matrix(0.5952 -0.8036 0.8036 0.5952 -6.2181 19.3201)" class="st0" cx="16.1" cy="15.8" rx="4" ry="3.2"/>
<ellipse transform="matrix(-0.326 -0.9454 0.9454 -0.326 -2.1328 43.7397)" class="st0" cx="14.5" cy="22.6" rx="3.1" ry="2.1"/>
<ellipse transform="matrix(-0.9698 -0.2439 0.2439 -0.9698 32.5703 57.992)" class="st0" cx="19.9" cy="27" rx="4.1" ry="2.1"/>
<ellipse transform="matrix(-0.9664 0.257 -0.257 -0.9664 42.2635 16.9998)" class="st0" cx="20" cy="11.3" rx="2.3" ry="1.7"/>
<ellipse transform="matrix(-0.9467 -0.322 0.322 -0.9467 44.9185 31.3811)" class="st0" cx="25.1" cy="12" rx="2.8" ry="2"/>
<ellipse transform="matrix(0.8749 -0.4843 0.4843 0.8749 -6.6284 15.2637)" class="st0" cx="26.2" cy="20.5" rx="2" ry="1.6"/>
<ellipse transform="matrix(-0.1579 0.9875 -0.9875 -0.1579 55.7266 -5.1312)" class="st0" cx="30.1" cy="21.2" rx="2" ry="1.6"/>
<ellipse transform="matrix(0.9543 0.299 -0.299 0.9543 12.141 -9.832)" class="st0" cx="38.2" cy="34.8" rx="3.4" ry="2.7"/>
<ellipse transform="matrix(0.5803 0.8144 -0.8144 0.5803 40.7689 -24.0141)" class="st0" cx="43.7" cy="27.5" rx="3.6" ry="2.8"/>
<ellipse transform="matrix(-0.6234 0.7819 -0.7819 -0.6234 101.5626 15.9876)" class="st0" cx="46.9" cy="32.5" rx="2.9" ry="2.3"/>
<ellipse transform="matrix(0.144 0.9896 -0.9896 0.144 60.0563 -13.4843)" class="st0" cx="37.8" cy="28" rx="3.8" ry="2.8"/>
<ellipse transform="matrix(0.9939 0.1107 -0.1107 0.9939 2.5816 -4.3978)" class="st0" cx="40.9" cy="21.1" rx="4" ry="3.2"/>
<ellipse transform="matrix(0.6535 -0.7569 0.7569 0.6535 -5.6469 33.9495)" class="st0" cx="34.3" cy="23.1" rx="3.1" ry="2.1"/>
<ellipse transform="matrix(-0.2766 -0.961 0.961 -0.2766 13.5793 70.1264)" class="st0" cx="33.2" cy="30" rx="4.1" ry="2.1"/>
<ellipse transform="matrix(-0.7079 -0.7063 0.7063 -0.7079 64.343 70.9667)" class="st0" cx="46.8" cy="22.2" rx="2.3" ry="1.7"/>
<ellipse transform="matrix(-0.1975 -0.9803 0.9803 -0.1975 32.0282 79.9971)" class="st0" cx="48.8" cy="26.9" rx="2.8" ry="2"/>
<ellipse transform="matrix(0.8584 0.5129 -0.5129 0.8584 22.4477 -16.9953)" class="st0" cx="42" cy="32.2" rx="2" ry="1.6"/>
<ellipse transform="matrix(-0.933 0.3598 -0.3598 -0.933 96.5939 53.7066)" class="st0" cx="43.3" cy="35.8" rx="2" ry="1.6"/>
<ellipse transform="matrix(-0.1341 -0.991 0.991 -0.1341 -3.7457 76.2801)" class="st0" cx="31.5" cy="39.8" rx="3.4" ry="2.7"/>
<ellipse transform="matrix(0.4914 -0.871 0.871 0.4914 -21.4965 38.9446)" class="st0" cx="22.6" cy="37.9" rx="3.6" ry="2.8"/>
<ellipse transform="matrix(0.9725 0.2328 -0.2328 0.9725 8.3547 -5.0718)" class="st0" cx="25.7" cy="32.9" rx="2.9" ry="2.3"/>
<ellipse transform="matrix(0.835 -0.5502 0.5502 0.835 -19.4585 21.1057)" class="st0" cx="25.5" cy="43" rx="3.8" ry="2.8"/>
<ellipse transform="matrix(-0.3214 -0.9469 0.9469 -0.3214 -17.2052 73.9536)" class="st0" cx="17.9" cy="43.1" rx="4" ry="3.2"/>
<ellipse transform="matrix(-0.9627 -0.2707 0.2707 -0.9627 31.3003 100.8778)" class="st0" cx="22.6" cy="48.3" rx="3.1" ry="2.1"/>
<ellipse transform="matrix(-0.7529 0.6581 -0.6581 -0.7529 81.7465 62.0334)" class="st0" cx="29.2" cy="46.4" rx="4.1" ry="2.1"/>
<ellipse transform="matrix(-0.3393 0.9407 -0.9407 -0.3393 57.031 34.5221)" class="st0" cx="16.4" cy="37.3" rx="2.3" ry="1.7"/>
<ellipse transform="matrix(-0.804 0.5947 -0.5947 -0.804 55.7601 48.7358)" class="st0" cx="19.8" cy="33.6" rx="2.8" ry="2"/>
<ellipse transform="matrix(0.1003 -0.995 0.995 0.1003 -12.5065 61.0234)" class="st0" cx="27.5" cy="37.4" rx="2" ry="1.6"/>
<ellipse transform="matrix(0.7216 0.6923 -0.6923 0.7216 32.4526 -11.2957)" class="st0" cx="30.3" cy="34.7" rx="2" ry="1.6"/>
</svg>
