<?xml version="1.0" encoding="utf-8"?>
<!-- Generator: Adobe Illustrator 19.1.0, SVG Export Plug-In . SVG Version: 6.00 Build 0)  -->
<svg version="1.1" id="Layer_1" xmlns="http://www.w3.org/2000/svg" xmlns:xlink="http://www.w3.org/1999/xlink" x="0px" y="0px"
	 viewBox="0 0 57.7 57.7" style="enable-background:new 0 0 57.7 57.7;" xml:space="preserve">
<style type="text/css">
	.st0{display:none;fill:#231F20;}
	.st1{fill:#231F20;}
</style>
<path class="st0" d="M28.8,57.7C12.9,57.7,0,44.7,0,28.8S12.9,0,28.8,0c15.9,0,28.8,12.9,28.8,28.8S44.7,57.7,28.8,57.7z M28.8,1
	C13.5,1,1,13.5,1,28.8c0,15.3,12.5,27.8,27.8,27.8s27.8-12.5,27.8-27.8C56.7,13.5,44.2,1,28.8,1z"/>
<path class="st1" d="M19,35.2L19,35.2c7.5-7.5,9.2-15.8,9.6-17.1c0.3-0.8,0.4-1.5,0.4-2.3c0-2.8-2.3-5-5-5c-2.5,0-4.6,1.7-5,4.1
	l0,0.1c-1.3,7.1-4.8,11.1-6.5,12.7c-0.3,0.2-0.6,0.5-0.9,0.7c0,0-0.1,0-0.1,0l0,0c-0.8,0.9-1.3,2.1-1.3,3.4c0,2.8,2.3,5,5,5
	C16.7,37,18.1,36.3,19,35.2z"/>
<path class="st1" d="M43.7,34.7c-1.3-1.3-8.3-8.6-10.9-10.7c0,0-2.2-1.6-4.2-0.5c0,0-0.3,0.1-0.7,1.1c-1,2.3-2.6,4.9-2.6,4.9
	c0.4,1.4,1.1,2.2,1.1,2.2l10.1,10.1l0.1,0.1c1.1,1.2,2.3,1.8,3.9,1.8c2.8,0,5-2.3,5-5C45.5,37,44.8,35.6,43.7,34.7z"/>
<path class="st1" d="M22.2,37.4c-2.1,0.6-3.6,2.5-3.6,4.8c0,2.8,2.3,5,5,5c0.8,0,1.5-0.2,2.2-0.5l0,0l9.1-4.7l-7.5-7.2
	C27.3,34.9,22.2,37.4,22.2,37.4z"/>
<path class="st1" d="M33.2,22.5c0.8,0.6,1.9,1.7,3.1,2.9c0.8,0.6,1.4,0.6,2.2,0.6c2.8,0,5-2.4,5-5.1s-2.3-5-5-5l-8.3,0.1
	c-0.3,2.5-1.4,6.2-1.4,6.2c0,0,0,0,0,0C29,22,29,22,29,22C31.6,21.2,33.2,22.5,33.2,22.5z"/>
</svg>
