<?xml version="1.0" encoding="utf-8"?>
<!-- Generator: Adobe Illustrator 15.0.0, SVG Export Plug-In . SVG Version: 6.00 Build 0)  -->
<!DOCTYPE svg PUBLIC "-//W3C//DTD SVG 1.1//EN" "http://www.w3.org/Graphics/SVG/1.1/DTD/svg11.dtd">
<svg version="1.1" id="Layer_2" xmlns="http://www.w3.org/2000/svg" xmlns:xlink="http://www.w3.org/1999/xlink" x="0px" y="0px"
	 width="56px" height="56.079px" viewBox="5.369 11.762 56 56.079" enable-background="new 5.369 11.762 56 56.079"
	 xml:space="preserve">
<path id="path53" d="M49.222,35.143c-1.584-2.888-4.286-4.037-7.423-4.037c-4.565,0-8.2,3.229-8.2,8.697
	c0,5.559,3.417,8.696,8.355,8.696c3.169,0,5.87-1.739,7.361-4.379l-3.479-1.771c-0.776,1.863-1.956,2.422-3.447,2.422
	c-2.577,0-3.759-2.143-3.759-4.969s0.995-4.97,3.759-4.97c0.745,0,2.236,0.404,3.107,2.267L49.222,35.143z"/>
<path id="path49" d="M33.331,11.762c-7.682,0-14.442,2.843-19.666,8.143C8.288,25.36,5.369,32.427,5.369,39.803
	c0,7.45,2.842,14.364,8.22,19.742c5.377,5.377,12.368,8.296,19.742,8.296s14.519-2.919,20.05-8.372
	c5.224-5.147,7.989-11.984,7.989-19.666c0-7.605-2.765-14.52-8.066-19.82C47.927,14.605,41.013,11.762,33.331,11.762z
	 M33.408,16.833c6.299,0,11.907,2.381,16.286,6.76c4.301,4.302,6.606,9.987,6.606,16.209c0,6.299-2.228,11.83-6.53,16.055
	c-4.533,4.455-10.371,6.838-16.363,6.838c-6.069,0-11.754-2.381-16.132-6.76c-4.379-4.381-6.837-10.142-6.837-16.133
	c0-6.069,2.458-11.831,6.837-16.287C21.577,19.138,27.109,16.833,33.408,16.833z"/>
<path id="path51" d="M33.046,35.143c-1.583-2.888-4.286-4.037-7.423-4.037c-4.565,0-8.199,3.229-8.199,8.697
	c0,5.559,3.416,8.696,8.355,8.696c3.169,0,5.87-1.739,7.361-4.379l-3.479-1.771c-0.777,1.863-1.956,2.422-3.447,2.422
	c-2.578,0-3.758-2.143-3.758-4.969s0.994-4.97,3.758-4.97c0.745,0,2.236,0.404,3.106,2.267L33.046,35.143z"/>
</svg>
