<?xml version="1.0" encoding="utf-8"?>
<!-- Generator: Adobe Illustrator 15.0.0, SVG Export Plug-In . SVG Version: 6.00 Build 0)  -->
<!DOCTYPE svg PUBLIC "-//W3C//DTD SVG 1.1//EN" "http://www.w3.org/Graphics/SVG/1.1/DTD/svg11.dtd">
<svg version="1.1" id="Layer_1" xmlns="http://www.w3.org/2000/svg" xmlns:xlink="http://www.w3.org/1999/xlink" x="0px" y="0px"
	 width="64px" height="64px" viewBox="0 0 64 64" enable-background="new 0 0 64 64" xml:space="preserve">
<path d="M32,0c-0.277,0-0.539-0.008-0.812,0C13.906,0.438,0,14.613,0,32c0,17.664,14.336,32,32,32s32-14.336,32-32S49.664,0,32,0z
	 M31.156,5.5c0.285-0.008,0.559,0,0.844,0c14.629,0,26.5,11.871,26.5,26.5c0,2.521-0.36,4.956-1.019,7.267l-15.646-7.05
	c-0.116-0.155-0.212-0.326-0.343-0.47c-1.219-1.328-3.535-2.461-6.941-3.391c-3.039-0.828-4.562-1.449-5.145-1.867
	c-0.586-0.395-0.875-0.895-0.875-1.5c0-0.672,0.316-1.215,0.953-1.629c0.637-0.434,1.418-0.648,2.918-0.648
	c2.387,0,3.832,0.148,5.781,1.781l3.453-3.754c-1.781-2.118-5.175-2.999-8.012-3.205v-4.659h-3.25v4.719
	c-2.231,0.259-4.008,0.985-5.312,2.191c-1.126,1.041-1.817,2.366-2.151,3.904L9.68,17.727C14.25,10.595,22.136,5.787,31.156,5.5z
	 M32,58.5C17.371,58.5,5.5,46.629,5.5,32c0-3.186,0.566-6.24,1.599-9.071l17.195,7.749c0.111,0.105,0.216,0.208,0.343,0.318
	c1.26,1.083,4.34,2.544,8.76,3.783l2.657,1.197c0.269,0.229,0.482,0.447,0.614,0.582c0.32,0.348,0.477,0.82,0.477,1.426
	c0,0.879-0.195,2.18-0.988,2.629c-2.16,1.219-8.449,1.012-10.512-1.871l-4.016,3.699c1.244,2.201,5.092,3.596,8.746,4.07v4.613h3.25
	v-4.459c2.98-0.146,5.114-1.413,6.859-3.037c1.355-1.251,2.214-2.749,2.588-4.49l12.219,5.506C50.799,52.896,42.051,58.5,32,58.5z"
	/>
</svg>
