<?xml version="1.0" encoding="utf-8"?>
<!-- Generator: Adobe Illustrator 19.1.0, SVG Export Plug-In . SVG Version: 6.00 Build 0)  -->
<svg version="1.1" id="Layer_1" xmlns="http://www.w3.org/2000/svg" xmlns:xlink="http://www.w3.org/1999/xlink" x="0px" y="0px"
	 viewBox="0 0 57.7 57.7" style="enable-background:new 0 0 57.7 57.7;" xml:space="preserve">
<style type="text/css">
	.st0{display:none;}
</style>
<path class="st0" d="M28.8,57.7C12.9,57.7,0,44.7,0,28.8C0,12.9,12.9,0,28.8,0s28.8,12.9,28.8,28.8C57.7,44.7,44.7,57.7,28.8,57.7z
	 M28.8,1C13.5,1,1,13.5,1,28.8s12.5,27.8,27.8,27.8c15.3,0,27.8-12.5,27.8-27.8S44.2,1,28.8,1z"/>
<path d="M47.8,26.1l-2.2-0.9c-4.6-1.8-9.8-7-11.6-11.6l-0.9-2.2c-1.8-4.6-4.7-4.6-6.5,0l-0.9,2.2c-1.8,4.6-7,9.8-11.6,11.6l-2.2,0.9
	c-4.6,1.8-4.6,4.7,0,6.5l2.2,0.9c4.6,1.8,9.8,7,11.6,11.6l0.9,2.2c1.8,4.6,4.7,4.6,6.5,0L34,45c1.8-4.6,7-9.8,11.6-11.6l2.2-0.9
	C52.3,30.8,52.3,27.9,47.8,26.1z M22.9,35.1c-0.8,0.4-1.8,0.1-2.3-0.7c-0.4-0.8-0.1-1.8,0.7-2.3c0.8-0.4,1.8-0.1,2.3,0.7
	C24,33.7,23.7,34.7,22.9,35.1z M23.8,25.8c-0.5,0.8-1.5,1-2.3,0.5c-0.8-0.5-1-1.5-0.5-2.3c0.5-0.8,1.5-1,2.3-0.5
	C24,23.9,24.3,25,23.8,25.8z M29.7,19.1c0.9,0,1.7,0.8,1.7,1.7c0,0.9-0.8,1.7-1.7,1.7S28,21.8,28,20.8C28,19.9,28.8,19.1,29.7,19.1z
	 M29.7,39.9c-0.9,0-1.7-0.8-1.7-1.7s0.8-1.7,1.7-1.7s1.7,0.8,1.7,1.7S30.6,39.9,29.7,39.9z M29.7,32.2c-1.5,0-2.7-1.2-2.7-2.7
	c0-1.5,1.2-2.7,2.7-2.7c1.5,0,2.7,1.2,2.7,2.7C32.4,31,31.2,32.2,29.7,32.2z M38.5,35c-0.5,0.8-1.5,1-2.3,0.5
	c-0.8-0.5-1-1.5-0.5-2.3c0.5-0.8,1.5-1,2.3-0.5C38.7,33.2,39,34.2,38.5,35z M38.1,26.8c-0.8,0.4-1.8,0.1-2.3-0.7
	c-0.4-0.8-0.1-1.8,0.7-2.3c0.8-0.4,1.8-0.1,2.3,0.7C39.2,25.4,38.9,26.4,38.1,26.8z"/>
</svg>
