<?xml version="1.0" encoding="utf-8"?>
<!-- Generator: Adobe Illustrator 19.1.0, SVG Export Plug-In . SVG Version: 6.00 Build 0)  -->
<svg version="1.1" id="Layer_1" xmlns="http://www.w3.org/2000/svg" xmlns:xlink="http://www.w3.org/1999/xlink" x="0px" y="0px"
	 viewBox="-352.7 243.6 83.3 83.3" style="enable-background:new -352.7 243.6 83.3 83.3;" xml:space="preserve">
<path d="M-281.8,243.6h-58.4c-6.9,0-12.5,5.6-12.5,12.5v58.3c0,6.9,5.6,12.5,12.5,12.5h58.3c6.9,0,12.5-5.6,12.5-12.5v-58.3
	C-269.3,249.2-274.9,243.6-281.8,243.6z M-327.7,318.6h-12.5c-2.3,0-4.2-1.9-4.2-4.2V302h16.7V318.6z M-327.7,293.6h-16.6V277h16.7
	v16.6H-327.7z M-327.7,268.6h-16.6v-12.5c0-2.3,1.9-4.2,4.2-4.2h12.5v16.7H-327.7z M-302.7,318.6h-16.6V302h16.7v16.6H-302.7z
	 M-302.7,293.6h-16.6V277h16.7v16.6H-302.7z M-302.7,268.6h-16.6V252h16.7v16.6H-302.7z M-277.7,314.5c0,2.3-1.9,4.2-4.2,4.2h-12.4
	V302h16.7v12.5H-277.7z M-277.7,293.6h-16.6V277h16.7v16.6H-277.7z M-277.7,268.6h-16.6V252h12.5c2.3,0,4.2,1.9,4.2,4.2v12.4H-277.7
	z"/>
</svg>
