<?xml version="1.0" encoding="utf-8"?>
<!-- Generator: Adobe Illustrator 19.1.0, SVG Export Plug-In . SVG Version: 6.00 Build 0)  -->
<svg version="1.1" id="Layer_1" xmlns="http://www.w3.org/2000/svg" xmlns:xlink="http://www.w3.org/1999/xlink" x="0px" y="0px"
	 viewBox="-288 396 32 32" style="enable-background:new -288 396 32 32;" xml:space="preserve">
<path d="M-272,413.3c-2.6,1.8-5.6,5.1-5.6,7.9c0,3.6,0,4.5,0,4.7h-1.9c0,0,0-1,0-4.7c0-4.7,3.7-7.7,6.5-9.8c3.4-2.6,6.5-5.7,6.5-8.7
	c0-4.6,0-4.6,0-4.6h1.9c0,0.3,0,1.4,0,4.6C-264.6,407.3-269.2,411.3-272,413.3z M-275.7,400h7.4v1.9h-7.4
	C-275.7,401.8-275.7,400-275.7,400z M-275.6,403.7h7.2c0,0-0.1,0.4-0.4,0.9c-0.2,0.4-0.6,0.9-0.6,0.9h-5.1c0,0-0.4-0.5-0.7-0.9
	C-275.5,404.1-275.6,403.7-275.6,403.7z M-275.4,410.2c0,0-1.9-1.7-3.2-4c-0.4-0.7-0.8-1.8-0.8-3.4c0-2.8,0-2.6,0-4.6h1.9
	c0,1.4,0,2.7,0,4.6c0,1.3,0.4,1.9,0.8,2.7c1.1,2,2.9,3.5,2.9,3.5L-275.4,410.2z M-268.3,424.1h-7.4v-1.9h7.4V424.1z M-268.4,420.3
	h-7.2c0,0,0.1-0.5,0.4-0.9c0.3-0.5,0.7-0.9,0.7-0.9h5.1c0,0,0.4,0.5,0.6,0.9C-268.6,419.9-268.4,420.3-268.4,420.3z M-270.2,414.8
	l1.6-1.3c0,0,1.9,1.8,3.2,4.1c1,1.8,0.8,4.6,0.8,8.3h-1.8c0,0,0,0,0,0c0-2.9,0-5.9-0.8-7.4C-268.4,416.3-270.2,414.8-270.2,414.8z
	 M-266.4,425.9L-266.4,425.9C-266.4,426.1-266.4,425.9-266.4,425.9z"/>
</svg>
