<?xml version="1.0" encoding="utf-8"?>
<!-- Generator: Adobe Illustrator 15.0.0, SVG Export Plug-In . SVG Version: 6.00 Build 0)  -->
<!DOCTYPE svg PUBLIC "-//W3C//DTD SVG 1.1//EN" "http://www.w3.org/Graphics/SVG/1.1/DTD/svg11.dtd">
<svg version="1.1" id="Layer_1" xmlns="http://www.w3.org/2000/svg" xmlns:xlink="http://www.w3.org/1999/xlink" x="0px" y="0px"
	 width="510.247px" height="569.045px" viewBox="50.875 34.98 510.247 569.045"
	 enable-background="new 50.875 34.98 510.247 569.045" xml:space="preserve">
<path d="M104.217,159.792l4.07-24.896L79.468,109.7c0,0-36.267,17.552-27.112,56.188c9.149,38.654,24.896,34.59,24.896,34.59
	l0.508-11.701C77.773,188.777,101.164,185.215,104.217,159.792z M232.56,556.448c-0.006-0.049,0.012-0.098,0.006-0.141
	C230.485,557.482,232.56,556.448,232.56,556.448z M521.669,299.775c0,0,65.031-35.141,28.109-73.202
	c-50.546-52.105-95.907,13.55-95.907,13.55c-85.447-85.454-249.488-24.4-249.488-24.4c-20.985-12.295-6.193-78-6.193-103.826
	c0-25.827-12.607-82.271-84.419-76.506C66.849,42.172,73.464,77.57,73.464,77.57c-0.79-30.092,41.714-25.318,41.714-25.318
	c39.805,0,65.197,23.868,65.197,54.682s-28.538,40.006-40.662,36.775c-12.124-3.231-22.65,0.551-22.65,0.551
	c9.045,9.572-9.456,35.759-9.456,35.759C73.14,237.198,88.924,280.375,88.924,280.375
	c54.357,137.039,139.487,181.733,192.712,196.25c0,0-2.736,42.13-23.898,43.128c-21.157,0.997-29.59-4.357-35.086,4.577
	c0,0,12.711-1.579,12.711,7.111c0,0-37.625,1.457-37.625,12.724c0,0,35.692-7.521,43.219,0c0,0-9.217,4.56-8.391,12.13
	c1.958-1.107,7.601-4.174,22.252-11.958c30.221-16.065,77.669-16.451,77.669-16.451c-9.541-8.035-29.094-0.759-33.739-4.987
	c-4.646-4.229-1.695-11.255-1.695-11.255c3.207-11.396,6.604-23.36,8.47-29.939c15.245,2.283,24.578,1.818,24.578,1.818
	c0,19.627,11.444,28.893,21.004,33.237c0.68,11.365,0.435,47.907-31.622,43.85c-37.883-4.792-36.738,3.623-36.738,3.623
	s12.24-3.06,21.041,8.801c0,0-22.938,2.724-27.724,12.84c0,0,30.018-7.1,45.606-0.165c0,0-13.88,3.788-12.062,18.317
	c0,0,29.34-23.115,55.76-31.371c24.479-7.65,46.665-8.415,46.665-8.415c-8.091-4.346-25.099-3.99-34.04-3.825
	c-9.075,0.165-8.029-2.681-7.271-14.535c0.569-8.764,6.757-22.308,9.964-28.795c12.907-5.71,17.606-16.64,17.606-16.64
	c110.191,0,124.738-164.065,124.738-164.065s26.236,2.375,26.701-18.091C550.194,297.823,521.669,299.775,521.669,299.775z
	 M375.737,408.938c-56.182,58.52-120.068-57.889-133.012-82.999c-12.944-25.111,4.883-50.735,4.883-50.735
	c-3.77,30.355,7.338,46.604,7.338,46.604s53.042,123.471,105.283,81.726c52.24-41.744,7.43-81.726,7.43-81.726
	S431.913,350.418,375.737,408.938z"/>
</svg>
