<?xml version="1.0" encoding="utf-8"?>
<!-- Generator: Adobe Illustrator 16.0.0, SVG Export Plug-In . SVG Version: 6.00 Build 0)  -->
<!DOCTYPE svg PUBLIC "-//W3C//DTD SVG 1.1//EN" "http://www.w3.org/Graphics/SVG/1.1/DTD/svg11.dtd">
<svg version="1.1" id="Layer_1" xmlns="http://www.w3.org/2000/svg" xmlns:xlink="http://www.w3.org/1999/xlink" x="0px" y="0px"
	 width="412.844px" height="336.334px" viewBox="0 0 412.844 336.334" enable-background="new 0 0 412.844 336.334"
	 xml:space="preserve">
<g id="google-plus-icon">
	<path fill="#717171" d="M387.866,72.781h-45.454v45.455h-22.729V72.781h-45.457V50.053h45.457V4.6h22.729v45.455h45.454V72.781z
		 M259.361,260.782c0,34.072-31.109,75.552-109.376,75.552c-57.241,0-104.98-24.689-104.98-66.215
		c0-32.052,20.291-73.66,115.111-73.66c-14.083-11.476-17.538-27.524-8.933-44.902c-55.518,0-83.95-32.64-83.95-74.084
		c0-40.553,30.161-77.419,91.666-77.419c15.529,0,98.528,0,98.528,0l-22.017,23.11h-25.863c18.246,10.454,27.95,31.984,27.95,55.714
		c0,21.782-11.994,39.425-29.112,52.66c-30.377,23.486-22.601,36.6,9.227,59.811C248.992,214.856,259.361,233.007,259.361,260.782z
		 M197.91,80.359c-4.582-34.873-27.301-63.483-53.845-64.281c-26.555-0.789-44.363,25.897-39.778,60.779
		c4.585,34.873,29.821,59.233,56.38,60.033C187.211,137.68,202.491,115.236,197.91,80.359z M225.282,264.28
		c0-28.682-26.164-56.021-70.063-56.021c-39.564-0.436-73.093,24.999-73.093,54.483c0,30.087,28.573,55.133,68.139,55.133
		C200.847,317.877,225.282,294.367,225.282,264.28z"/>
</g>
</svg>
