<?xml version="1.0" encoding="utf-8"?>
<!-- Generator: Adobe Illustrator 19.1.0, SVG Export Plug-In . SVG Version: 6.00 Build 0)  -->
<svg version="1.1" id="mark" xmlns="http://www.w3.org/2000/svg" xmlns:xlink="http://www.w3.org/1999/xlink" x="0px" y="0px"
	 viewBox="0 0 549.7 540.3" style="enable-background:new 0 0 549.7 540.3;" xml:space="preserve">
<path d="M235.7,271.9h-5v-5c0-57.5,15.1-103.6,44.8-137c34.6-38.9,88-58.7,158.6-58.7h5v5c0,53.7-18.3,102.4-51.4,137.2
	C351.2,251.7,298.6,271.9,235.7,271.9z M429,81.2c-65.1,0.9-114.2,19.5-146.1,55.3c-27.2,30.6-41.4,72.7-42.2,125.3
	c57.9-1,106.1-20.1,139.6-55.3C410.7,174.6,427.9,130.3,429,81.2z"/>
<path d="M473,540.3c-83.6,0-156.3-33.7-228.5-105.9c-3.3-3.3-6.7-6.8-10.3-10.5c-32.9-33.7-78.1-79.8-138.4-79.8
	c-30.2,0-59.8,11.3-81.1,31l-0.4,0.4c-2.2,2.1-6.4,5.9-11,3.5c-1.4-0.8-2.5-2.1-3-3.7c-0.9-3,0.3-6.8,4-13.2
	c22.8-39,74.5-66.4,136.1-72.4c-30.8-96.7-8.9-212.6,25.2-280.6l4.6-9.2l4.4,9.3c17.1,36.1,30,83.8,35.4,131
	c6.2,53.9,2.5,105-10.7,148.1c74.8,1,152.5,19.2,214.2,50.1c44.2,21.6,78,47.5,100.5,76.9c23.8,31.1,35.8,67.5,35.8,107.9v3.5
	l-3.3,1.2c-23.5,8.7-45.3,12.3-72.9,12.3C473.4,540.3,473.2,540.3,473,540.3z M95.8,334.1c64.6,0,111.4,47.9,145.6,82.8
	c3.6,3.7,7,7.1,10.2,10.4c70.2,70.2,140.6,103,221.4,103c0.2,0,0.4,0,0.6,0h0c25,0,45-3.2,66.1-10.5
	c-1.3-73.7-44.1-130.1-130.7-172.4c-62.3-31.2-141.2-49.1-216.6-49.1h-6.9l2.2-6.6c14.4-43.1,18.6-95,12.3-150.3
	c-4.8-41.9-15.6-84.3-30.1-118.1c-31.2,68.7-49.4,178.6-18.1,269.3l2.1,6.1l-6.5,0.5c-56.8,4.1-105.3,26.9-129.5,60.3
	C39.9,343.3,67.5,334.1,95.8,334.1z"/>
</svg>
