<?xml version="1.0" encoding="utf-8"?>
<!-- Generator: Adobe Illustrator 19.1.0, SVG Export Plug-In . SVG Version: 6.00 Build 0)  -->
<svg version="1.1" id="Layer_1" xmlns="http://www.w3.org/2000/svg" xmlns:xlink="http://www.w3.org/1999/xlink" x="0px" y="0px"
	 viewBox="-395 282.3 32 32" style="enable-background:new -395 282.3 32 32;" xml:space="preserve">
<g id="icomoon-ignore">
</g>
<path d="M-376.3,287.6c0-1.5-1.2-2.7-2.7-2.7s-2.7,1.2-2.7,2.7c0,1.5,1.2,2.7,2.7,2.7S-376.3,289.1-376.3,287.6z M-380.8,287.6
	c0-1,0.8-1.8,1.8-1.8s1.8,0.8,1.8,1.8s-0.8,1.8-1.8,1.8S-380.8,288.6-380.8,287.6L-380.8,287.6z"/>
<path d="M-376.3,309c0-1.5-1.2-2.7-2.7-2.7s-2.7,1.2-2.7,2.7c0,1.5,1.2,2.7,2.7,2.7S-376.3,310.5-376.3,309z M-380.8,309
	c0-1,0.8-1.8,1.8-1.8s1.8,0.8,1.8,1.8s-0.8,1.8-1.8,1.8S-380.8,310-380.8,309z"/>
<path d="M-376.3,298.3c0-1.5-1.2-2.7-2.7-2.7s-2.7,1.2-2.7,2.7c0,1.5,1.2,2.7,2.7,2.7S-376.3,299.8-376.3,298.3z M-380.8,298.3
	c0-1,0.8-1.8,1.8-1.8s1.8,0.8,1.8,1.8s-0.8,1.8-1.8,1.8S-380.8,299.3-380.8,298.3z"/>
</svg>
