<svg xmlns="http://www.w3.org/2000/svg" xmlns:xlink="http://www.w3.org/1999/xlink" version="1.1" x="0px" y="0px" viewBox="0 0 100 125" style="enable-background:new 0 0 100 100;" xml:space="preserve"><path d="M69.3,58c0-6.1-12.6-7-12.6-22c0-11,7.9-19.2,18.9-19.2C87.3,16.9,95,27.4,95,38.5c0,19.2-18,44.6-29.2,44.6  c-2.8,0-7.9-2-7.9-5.4C58,74.3,69.3,68.4,69.3,58z"/><path d="M17.6,58C17.6,52,5,51,5,36.1c0-11,7.9-19.2,18.9-19.2c11.8,0,19.5,10.5,19.5,21.6c0,19.2-18,44.6-29.2,44.6  c-2.8,0-7.9-2-7.9-5.4C6.3,74.3,17.6,68.4,17.6,58z"/><text x="0" y="115" fill="#000000" font-size="5px" font-weight="bold" font-family="'Helvetica Neue', Helvetica, Arial-Unicode, Arial, Sans-serif">Created by Yoshi</text><text x="0" y="120" fill="#000000" font-size="5px" font-weight="bold" font-family="'Helvetica Neue', Helvetica, Arial-Unicode, Arial, Sans-serif">from the Noun Project</text></svg>