<?xml version="1.0" encoding="utf-8"?>
<!-- Generator: Adobe Illustrator 19.1.0, SVG Export Plug-In . SVG Version: 6.00 Build 0)  -->
<svg version="1.1" id="Layer_1" xmlns="http://www.w3.org/2000/svg" xmlns:xlink="http://www.w3.org/1999/xlink" x="0px" y="0px"
	 viewBox="-338.4 257.1 65.5 65.8" style="enable-background:new -338.4 257.1 65.5 65.8;" xml:space="preserve">
<g>
	<g>
		<path d="M-282.4,321.2c2.2,2.2,5.7,2.2,7.8,0l0,0c2.2-2.2,2.2-5.7,0-7.8l-19.9-19.9l8.7-4.5c2.2-1.1,1.9-4.4-0.5-5l-35.2-9.9
			l9.7,35.4c0.6,2.4,3.9,2.7,5,0.5l4.5-8.6L-282.4,321.2z"/>
		<path d="M-326.7,290.1c0.3,0.1,0.5,0.1,0.8,0.1c1.1,0,2-0.7,2.4-1.7c0.4-1.3-0.3-2.7-1.6-3.1c-4.9-1.6-8.3-6.2-8.3-11.4
			c0-6.6,5.4-12,12-12c5.2,0,9.8,3.3,11.4,8.3c0.4,1.3,1.8,2,3.1,1.6c1.3-0.4,2-1.8,1.6-3.1c-2.3-7-8.8-11.7-16.1-11.7
			c-9.4,0-17,7.6-17,17C-338.5,281.4-333.7,287.9-326.7,290.1z"/>
	</g>
</g>
</svg>
