<?xml version="1.0" encoding="utf-8"?>
<!-- Generator: Adobe Illustrator 19.1.0, SVG Export Plug-In . SVG Version: 6.00 Build 0)  -->
<svg version="1.1" id="Layer_1" xmlns="http://www.w3.org/2000/svg" xmlns:xlink="http://www.w3.org/1999/xlink" x="0px" y="0px"
	 viewBox="-395 282.3 32 32" style="enable-background:new -395 282.3 32 32;" xml:space="preserve">
<g id="icomoon-ignore">
</g>
<path d="M-393.6,288.5h29v1.1h-29C-393.6,289.6-393.6,288.5-393.6,288.5z"/>
<path d="M-393.1,288.5v20.7h-1.1v-20.7C-394.1,288.5-393.1,288.5-393.1,288.5z"/>
<path d="M-393.6,294.9h29v1.1h-29C-393.6,296-393.6,294.9-393.6,294.9z"/>
<path d="M-393.6,301h29v1.1h-29C-393.6,302.1-393.6,301-393.6,301z"/>
<path d="M-393.6,308.2h29v1.1h-29C-393.6,309.2-393.6,308.2-393.6,308.2z"/>
<path d="M-364.6,288.5v20.7h-1.1v-20.7C-365.7,288.5-364.6,288.5-364.6,288.5z"/>
<path d="M-384.6,288.5v20.7h-1.1v-20.7C-385.6,288.5-384.6,288.5-384.6,288.5z"/>
</svg>
