<svg xmlns="http://www.w3.org/2000/svg" xmlns:xlink="http://www.w3.org/1999/xlink" version="1.1" x="0px" y="0px" viewBox="0 0 100 125" enable-background="new 0 0 100 100" xml:space="preserve"><path d="M95.016,10.595L68.553,24.252c0.455-1.106,0.713-2.375,0.713-3.725c0-0.983-0.139-1.923-0.389-2.789  c-0.348,2.035-1.955,4.076-4.348,5.38c0.434-1.451,0.494-3.152,0.08-4.886c-0.227-0.957-0.578-1.839-1.021-2.625  c0.152,2.395-1.344,5.19-4.041,7.08c-0.514,0.36-1.043,0.665-1.58,0.921c-3.039-1.445-6.516-2.27-10.211-2.27  c-0.105,0-0.21,0.005-0.315,0.007v-0.007c-0.186,0-0.369,0.004-0.551,0.008v-0.008c-7.853,0-14.942,3.346-19.987,8.722  c-5.236,4.582-8.915,9.398-11.845,10.117c-5.028,1.235-7.407,0.554-7.407,0.554c3.498,1.765,6.689,1.917,9.746,1.133  c-1.57,1.231-3.205,2.208-5.018,2.752c-4.958,1.491-7.407,0.554-7.407,0.554c4.113,2.144,7.773,2.088,11.26,0.891  c-2.764,3.707-6.489,6.766-10.845,8.889c6.695,20.022,25.597,34.455,47.872,34.455c0.084,0,0.17-0.003,0.254-0.003  c-1.156-5.163-2.807-9.771-4.831-13.57c2.194-3.504,3.565-8.47,3.565-13.984c0-5.866-1.551-11.114-3.995-14.641  c1.557,1.68,3.606,2.916,5.924,3.489c1.148,2.204,2.988,4.002,5.242,5.126c0.014,0.108,0.031,0.216,0.049,0.325  c0.436,2.863,1.984,5.37,4.207,7.089c0.389,0.038,0.781,0.059,1.18,0.059c6.303,0,8.51-1.456,8.51-7.611  c0-0.839-3.445-13.151-3.625-13.937c0.541-1.334,1.629-2.472,0.945-3.833c-0.863-1.718-1.893-2.887-2.455-3.454  c-0.145-0.398-0.309-0.791-0.484-1.177l27.283-22.67C95.023,10.607,95.02,10.601,95.016,10.595z"/></svg>