<?xml version="1.0" encoding="utf-8"?>
<!-- Generator: Adobe Illustrator 19.1.0, SVG Export Plug-In . SVG Version: 6.00 Build 0)  -->
<svg version="1.1" id="Layer_1" xmlns="http://www.w3.org/2000/svg" xmlns:xlink="http://www.w3.org/1999/xlink" x="0px" y="0px"
	 viewBox="0 0 57.7 57.7" style="enable-background:new 0 0 57.7 57.7;" xml:space="preserve">
<path d="M21.7,11.6c1.8-1.2,4.1-1.8,6.8-1.8c3.5,0,6.5,0.8,8.8,2.5s3.5,4.2,3.5,7.5c0,2-0.5,3.7-1.5,5.1c-0.6,0.8-1.7,1.9-3.4,3.2
	l-1.7,1.3c-0.9,0.7-1.5,1.5-1.8,2.5c-0.2,0.6-0.3,1.5-0.3,2.8h-6.4c0.1-2.6,0.3-4.5,0.7-5.5c0.4-1,1.4-2.2,3.1-3.5l1.7-1.3
	c0.6-0.4,1-0.9,1.4-1.4c0.6-0.9,0.9-1.8,0.9-2.8c0-1.2-0.3-2.3-1-3.2c-0.7-1-2-1.5-3.8-1.5c-1.8,0-3.1,0.6-3.8,1.8s-1.1,2.5-1.1,3.8
	h-6.8C17.2,16.7,18.8,13.5,21.7,11.6z M25.6,38h7v6.8h-7V38z"/>
</svg>
