<?xml version="1.0" encoding="utf-8"?>
<!-- Generator: Adobe Illustrator 19.1.0, SVG Export Plug-In . SVG Version: 6.00 Build 0)  -->
<svg version="1.1" id="Layer_1" xmlns="http://www.w3.org/2000/svg" xmlns:xlink="http://www.w3.org/1999/xlink" x="0px" y="0px"
	 viewBox="0 0 426.6 440.7" style="enable-background:new 0 0 426.6 440.7;" xml:space="preserve">
<path d="M221.5,440.7c-31.4,0-68.1-7-93.5-17.7l-4.2-1.8c-23.9-10.1-48.7-20.5-68-39.8C36,361.7,22.6,333.6,11,306.2
	c-12.5-24.1-11.4-46-10.4-67.2c0.3-5.9,0.6-12,0.6-18.2c-4.6-34.3,5.1-57.1,15.3-81.2l1.4-3.4c1.4-3.3,2.8-6.7,4.2-10
	c9.3-22.6,18.1-43.9,36-61.8C77.5,45,105.3,33.3,129.8,23l6.7-2.8C160.9,9.8,183.9,0,213.7,0c29.7,0,58.6,5.8,85.7,17.3
	c27.3,11.5,50.1,34.4,68.5,52.7c19.4,19.4,31.3,34.1,42.6,60.9c10.9,25.9,16,52.4,16,83.5c0,3,0,6.1,0,9.2
	c0.1,27.2,0.3,57.9-10,82.3c-7.9,18.7-24.7,53.6-48,76.9c-19.2,19.2-41.3,28.5-64.7,38.3l-4.5,1.9
	C272.8,434.3,251.6,440.7,221.5,440.7z M213.7,18c-26.1,0-46.5,8.7-70.2,18.7l-6.7,2.8c-24.1,10.2-49.1,20.7-66,37.7
	c-15.3,15.3-23.4,35-32,55.9c-1.4,3.4-2.8,6.7-4.2,10.1l-1.4,3.4c-10.1,23.8-18.1,42.5-13.9,72.3l0.1,0.6v0.6
	c0,6.9-0.3,13.4-0.6,19.7c-1,20.6-1.9,38.4,8.5,58.3l0.3,0.7c10.9,25.8,23.5,52.2,41.1,69.9c16.8,16.8,38.9,26.1,62.3,36l4.2,1.8
	c23.4,9.9,57.4,16.3,86.5,16.3c27.2,0,45.9-5.7,70.9-16.3l4.5-1.9c22.6-9.5,42.2-17.8,58.9-34.5c15.5-15.5,31.5-41.4,44.1-71.2
	c8.9-20.9,8.7-49.7,8.6-75.2c0-3.1,0-6.2,0-9.3c0-28.6-4.6-52.9-14.6-76.5c-10.2-24.2-20.6-37-38.7-55.1
	c-18.1-18.1-38.7-38.7-62.8-48.9C267.5,23.3,241,18,213.7,18z"/>
<path d="M213.7,404.6c-22.9,0-38.7-6.8-57-14.7c-2.4-1.1-4.9-2.1-7.5-3.2c-18.1-7.7-28.1-18.2-39.6-30.4c-2.9-3.1-5.9-6.3-9.2-9.5
	c-8.3-8.3-36.2-37.4-47.7-64.6c-1.6-3.7-3.1-7.1-4.6-10.5C41,255.7,34.8,242,34.8,220.4c0-25.4,5.1-51.6,14.5-73.6
	c8.2-19.4,18.1-29.1,30.7-41.4c2.1-2,4.3-4.2,6.6-6.5c18.8-18.8,37.7-32.1,57.9-40.6c4.6-2,9.3-4.2,13.9-6.3
	c17.1-8,34.7-16.2,55.3-16.2c24.9,0,49,4.9,71.8,14.5c22,9.3,41.7,22.6,58.6,39.5c16.9,16.9,30.2,36.7,39.5,58.6
	c9.6,22.7,14.5,46.9,14.5,71.8s-4.9,49-14.5,71.8c-6.7,15.7-17.2,24-28.3,32.8c-5.1,4-10.4,8.2-15.5,13.3
	c-4.8,4.8-9.5,10.5-14.5,16.6c-11.6,14.1-23.7,28.7-39.8,35.5C262.7,399.7,238.6,404.6,213.7,404.6z M213.7,47.8
	c-17.9,0-33.6,7.3-50.2,15.1c-4.7,2.2-9.5,4.4-14.3,6.5c-18.7,7.9-36.4,20.4-54.1,38c-2.3,2.3-4.5,4.5-6.6,6.6
	c-12.5,12.3-20.8,20.4-28.1,37.5c-8.7,20.6-13.5,45.1-13.5,69c0,19,5.4,31.1,12.2,46.4c1.5,3.4,3.1,6.9,4.7,10.7
	c8.4,20,28.9,44.5,45.1,60.8c3.4,3.4,6.5,6.6,9.4,9.8c11.1,11.7,19.8,20.9,35.6,27.6c2.6,1.1,5.1,2.2,7.6,3.3
	c17.8,7.7,31.8,13.8,52.2,13.8c23.3,0,45.9-4.6,67.1-13.5c13.4-5.7,24.5-19.1,35.2-32.1c5.2-6.3,10.1-12.2,15.3-17.4
	c5.6-5.6,11.2-10,16.6-14.2c10.3-8.1,19.3-15.1,24.7-28c9-21.3,13.5-43.8,13.5-67.1c0-23.3-4.6-45.9-13.5-67.1
	c-8.7-20.5-21.1-39-37-54.8c-15.8-15.8-34.3-28.3-54.8-37C259.5,52.3,237,47.8,213.7,47.8z"/>
<path d="M244,359.8c-5.5,0-11.1-0.2-16.4-0.4c-4.9-0.2-9.6-0.3-13.9-0.3c-3.6,0-7.3,0.1-10.8,0.1c-16,0.3-31.1,0.6-45.6-5.5
	c-17.3-7.3-32.8-17.8-46.1-31.1c-12.5-12.5-21.4-33.7-28.6-50.8l-2.6-6.2c-6.5-15.3-11.2-26.4-11.2-45.6c0-19.6,3.8-38.6,11.4-56.4
	c8-18.9,21-38.9,33.2-51.1c9.6-9.6,18.1-12.4,28-15.7c4.2-1.4,8.4-2.8,13.3-4.9l2.6-1.1c16.5-7,37.1-15.8,56.4-15.8h0.4
	c0.2,0,0.3,0,0.5,0c19.6,0,38.2,0.1,55.5,7.4c17.6,7.4,33,22,46.1,35.1c13.7,13.7,21.4,30.3,28.1,46.1c7,16.5,14.4,35.8,14.4,56.4
	c0,17.7-0.6,38.1-8.4,56.4c-5.8,13.8-15.5,22.7-25.8,32.2c-2.9,2.7-5.9,5.5-8.8,8.4c-4.2,4.2-7.8,9-11.3,13.7
	c-6.9,9.2-14,18.7-26,23.8C268.8,358.8,256.4,359.8,244,359.8z M213.7,351.1c4.5,0,9.2,0.2,14.2,0.3c16.5,0.5,35.1,1.2,47.4-4
	c10-4.2,16.2-12.5,22.7-21.2c3.6-4.9,7.4-10,12-14.6c3-3,6.1-5.9,9-8.6c9.6-8.9,18.7-17.3,23.8-29.5c7.2-16.9,7.8-36.4,7.8-53.3
	c0-19.2-7.1-37.6-13.8-53.3c-6.4-15.1-13.7-30.8-26.4-43.5C298,110.8,283.3,96.8,267,89.9c-15.9-6.7-33.6-6.8-52.4-6.8
	c-0.1,0-0.3,0-0.4,0h-0.4c-17.6,0-37.4,8.4-53.3,15.1l-2.7,1.1c-5.2,2.2-9.8,3.7-13.9,5.1c-9.6,3.2-16.6,5.5-24.9,13.8
	c-11.5,11.5-23.8,30.6-31.5,48.5c-7.1,16.9-10.8,34.8-10.8,53.3c0,17.5,4.2,27.4,10.6,42.4l2.6,6.2c6.9,16.4,15.5,36.8,26.9,48.2
	c12.6,12.6,27.2,22.5,43.5,29.4c12.9,5.5,27.2,5.2,42.3,4.8C206.3,351.2,210,351.1,213.7,351.1z"/>
<path d="M213.7,331.7c-12.8,0-25.1-5.6-36-10.5c-2.6-1.2-5-2.3-7.5-3.3c-12.1-5.1-24.1-13.5-35.5-24.9c-9.9-9.9-15.1-17.8-20.9-31.5
	c-0.6-1.3-1.1-2.7-1.7-4c-4.9-11.5-10-23.4-10-37.4c0-15.1,3-29.7,8.8-43.4c5.8-13.7,14.3-22.8,23.9-32.5
	C145,134,157,126,170.2,120.4c13-5.5,27.8-11.8,43.4-11.8c13.7,0,27.9,3.2,43.4,9.8c14.6,6.2,26.2,13.7,35.5,22.9
	c2.7,2.7,5.3,5,7.8,7.2c6.6,5.8,12.9,11.3,17.1,21.3c5.7,13.6,7.8,35.6,7.8,50.4c0,15.1-3,29.7-8.8,43.4
	c-5.6,13.3-13.7,25.2-23.9,35.5c-10.2,10.2-22.2,18.3-35.5,23.9C243.4,328.8,228.7,331.7,213.7,331.7z M213.7,113.6
	c-14.6,0-28.9,6-41.5,11.4c-12.7,5.4-24.1,13.1-33.9,22.8c-9.3,9.3-17.4,18-22.8,30.9c-5.6,13.1-8.4,27.1-8.4,41.5
	c0,13,4.7,23.9,9.6,35.4c0.6,1.3,1.2,2.7,1.7,4.1c5.6,13.2,10.4,20.4,19.8,29.9c10.9,10.9,22.3,19,33.9,23.8c2.5,1.1,5,2.2,7.6,3.3
	c10.9,4.9,22.2,10,33.9,10c14.4,0,28.3-2.8,41.5-8.4c12.7-5.4,24.1-13.1,33.9-22.8c9.8-9.8,17.5-21.2,22.8-33.9
	c5.6-13.1,8.4-27.1,8.4-41.5c0-14.3-1.9-35.6-7.4-48.5c-3.8-8.9-9.3-13.8-15.8-19.5c-2.6-2.3-5.3-4.6-8.1-7.4
	c-8.8-8.8-19.8-15.9-33.9-21.8C240.3,116.6,226.7,113.6,213.7,113.6z"/>
<path d="M213.7,299c-10.6,0-21-2.1-30.7-6.2c-9-3.8-16.1-10.9-22.9-17.7l-1.2-1.2c-7.5-7.5-11.1-14.1-14.9-23.1
	c-3.9-9.2-4.2-18.9-4.2-30.7c0-3.2-0.3-6.2-0.5-9.1c-0.6-6.6-1.2-12.8,1.7-19.6c4.6-10.8,13.8-21,18.9-26.1l1.2-1.2
	c6.6-6.6,12.8-12.9,21.9-16.7c9.2-3.9,18.9-4.2,30.7-4.2c9.3,0,19.1,2.3,30.7,7.2c9.8,4.1,17.2,9,24.1,15.9l1.2,1.2
	c6.6,6.6,12.9,12.8,16.7,21.9c4.1,9.7,6.2,20.1,6.2,30.7c0,10.6-2.1,21-6.2,30.7c-4,9.4-9.7,17.8-16.9,25.1
	c-7.2,7.2-15.7,12.9-25.1,16.9C234.7,297,224.3,299,213.7,299z M213.7,147.3c-11.3,0-20.6,0.3-29.1,3.9c-8.3,3.5-14.3,9.5-20.6,15.8
	l-1.2,1.2c-4.9,4.9-13.7,14.6-18,24.8c-2.5,5.9-2,11.4-1.4,17.7c0.3,3,0.5,6.1,0.5,9.4c0,11.3,0.3,20.6,3.9,29.1
	c3.6,8.5,7.1,14.8,14,21.8l1.2,1.2c6.5,6.6,13.3,13.3,21.6,16.8c9.2,3.9,19,5.9,29.1,5.9s19.9-2,29.1-5.9c8.9-3.8,16.9-9.2,23.8-16
	s12.3-14.9,16-23.8c3.9-9.2,5.9-19,5.9-29.1c0-10.1-2-19.9-5.9-29.1c-3.5-8.3-9.5-14.3-15.8-20.6l-1.2-1.2
	c-6.5-6.5-13.5-11.1-22.8-15C231.7,149.5,222.5,147.3,213.7,147.3z"/>
<path d="M213.7,271.9c-5.2,0-10.2-2.8-14.6-5.2c-2-1.1-3.8-2.1-5.6-2.9c-1.9-0.8-3.9-1.3-5.7-1.8c-3.6-1-7.4-2-10.7-5.3
	c-3.3-3.3-4.3-7.1-5.3-10.7c-0.5-1.9-1-3.8-1.8-5.7c-2.7-6.4-4.1-13.2-4.1-20.1c0-1.1,0-2.2,0-3.3c-0.1-5.9-0.2-11.5,2.1-16.8
	c0.4-1,0.8-1.9,1.2-2.9c2-4.9,3.9-9.5,7.9-13.6c5-5,11.1-7.8,16.4-10.1c6.2-2.6,13-5.1,20.1-5.1c5.2,0,10.2,2.8,14.6,5.2
	c2,1.1,3.8,2.1,5.6,2.9c1.9,0.8,3.9,1.3,5.7,1.8c3.6,1,7.4,2,10.7,5.3c4.8,4.8,8.5,10.3,11.1,16.4c0.6,1.5,1.4,3,2.2,4.6
	c2.3,4.7,4.9,10,4.9,15.5c0,7.2-2.4,13.9-5.1,20.1c-2,4.7-5.6,7.8-9.1,10.9c-1.3,1.2-2.7,2.3-3.9,3.6l-1,1
	c-4.5,4.5-9.6,9.6-15.5,12.1C227.4,270.5,220.7,271.9,213.7,271.9z M213.7,172.4c-6.5,0-12.8,2.3-18.6,4.8
	c-6.4,2.7-11.1,5.2-15.2,9.2c-3.5,3.5-5.1,7.5-7,12.2c-0.4,1-0.8,1.9-1.2,2.9c-1.9,4.6-1.9,9.7-1.8,15.2c0,1.1,0,2.2,0,3.4
	c0,6.4,1.3,12.7,3.8,18.6c0.9,2.2,1.5,4.3,2,6.3c0.9,3.4,1.7,6.4,4.2,8.9c2.6,2.6,5.5,3.3,8.9,4.2c2,0.5,4.1,1.1,6.3,2
	c2,0.8,3.9,1.9,6,3.1c4.1,2.3,8.4,4.7,12.6,4.7c6.4,0,12.7-1.3,18.6-3.8c5.2-2.2,10-7,14.2-11.3l1-1c1.3-1.3,2.8-2.6,4.2-3.8
	c3.3-2.9,6.5-5.6,8.1-9.4c2.5-5.8,4.8-12.1,4.8-18.6c0-4.6-2.3-9.3-4.5-13.8c-0.8-1.7-1.6-3.2-2.3-4.8c-2.4-5.7-5.8-10.8-10.2-15.2
	c-2.6-2.6-5.5-3.3-8.9-4.2c-2-0.5-4.1-1.1-6.3-2c-2-0.8-3.9-1.9-6-3.1C222.2,174.8,217.9,172.4,213.7,172.4z"/>
<path d="M218.8,246.9c-0.5,0-1,0-1.6,0c-1,0-2.1,0-3.2,0c-3.1,0-6.2,0.1-9.2-1.2c-3.3-1.4-6.3-3.4-8.8-5.9c-1.9-1.9-2.5-4-3-6
	c-0.3-0.9-0.5-1.9-0.9-2.8c-0.4-0.9-0.9-1.8-1.4-2.7c-1.3-2.4-2.8-5.1-2.8-8.1s1.5-5.7,2.8-8.1c0.5-1,1-1.9,1.4-2.7
	c0.4-0.9,0.7-1.9,0.9-2.8c0.6-2,1.1-4.1,3-6c2.5-2.5,5.5-4.5,8.8-5.9c2.5-1.1,5.1-0.8,7.5-0.5c1.1,0.1,2.2,0.3,3.3,0.3
	c0.5,0,1.1,0,1.6,0c3.1,0,6.2-0.1,9.2,1.2c2.6,1.1,4.4,3.1,6,5c0.6,0.7,1.2,1.3,1.8,1.9l0.4,0.4c2.1,2.1,3.2,3.2,4.6,6.4
	c1.6,3.7,3.2,8,3.2,11.8c0,0.5,0,1.1,0,1.6c0,2.8,0.1,5.3-1.2,8.2c-1.4,3.3-3.4,6.3-5.9,8.8c-2.5,2.5-5.5,4.5-8.8,5.9
	C224,246.8,221.4,246.9,218.8,246.9z M215.7,242.9c0.5,0,1.1,0,1.6,0c2.8,0,5.4,0.1,7.6-0.9c2.8-1.2,5.4-2.9,7.5-5.1
	c2.2-2.2,3.9-4.7,5.1-7.6c0.9-2.2,0.9-4,0.9-6.6c0-0.5,0-1,0-1.6c0-3.1-1.5-7.1-2.9-10.2c-1.1-2.5-1.7-3.2-3.7-5.2l-0.4-0.4
	c-0.7-0.7-1.3-1.4-2-2.1c-1.4-1.6-2.8-3.2-4.6-4c-2.2-0.9-4.8-0.9-7.6-0.9c-0.5,0-1.1,0-1.6,0c-1.3,0-2.6-0.2-3.8-0.3
	c-2.1-0.3-3.9-0.5-5.5,0.2c-2.8,1.2-5.4,2.9-7.5,5.1c-1.2,1.2-1.5,2.5-2,4.3c-0.3,1-0.6,2.1-1.1,3.3c-0.4,1-1,2.1-1.6,3.1
	c-1.1,2.1-2.3,4.2-2.3,6.1s1.2,4.1,2.3,6.1c0.6,1,1.1,2.1,1.6,3.1c0.5,1.2,0.8,2.3,1.1,3.3c0.5,1.7,0.9,3.1,2,4.3
	c2.2,2.2,4.7,3.9,7.5,5.1c2.2,0.9,4.8,0.9,7.6,0.9C214.6,242.9,215.1,242.9,215.7,242.9z"/>
</svg>
