<?xml version="1.0" standalone="no"?>
<!DOCTYPE svg PUBLIC "-//W3C//DTD SVG 20010904//EN"
 "http://www.w3.org/TR/2001/REC-SVG-20010904/DTD/svg10.dtd">
<svg version="1.0" xmlns="http://www.w3.org/2000/svg"
 width="750.000000pt" height="750.000000pt" viewBox="0 0 750.000000 750.000000"
 preserveAspectRatio="xMidYMid meet">
<metadata>
Created by potrace 1.11, written by Peter Selinger 2001-2013
</metadata>
<g transform="translate(0.000000,750.000000) scale(0.100000,-0.100000)"
fill="#000000" stroke="none">
<path d="M2664 6293 c-161 -352 -275 -772 -331 -1223 -25 -204 -25 -749 0
-930 24 -172 60 -344 100 -483 l34 -117 -30 0 c-52 0 -238 -30 -352 -57 -228
-53 -449 -147 -625 -264 -174 -116 -385 -353 -406 -457 -10 -51 22 -41 111 33
144 120 304 200 495 250 140 36 360 46 503 21 202 -34 401 -118 604 -255 174
-118 299 -227 583 -511 140 -141 296 -292 345 -336 532 -473 1085 -744 1672
-818 366 -47 711 -24 996 65 l100 30 -7 112 c-46 735 -476 1282 -1340 1706
-596 293 -1295 464 -1989 488 -166 5 -187 8 -182 22 18 45 77 293 94 397 30
181 41 290 47 504 16 489 -67 1045 -226 1523 -53 159 -136 363 -151 373 -5 3
-26 -30 -45 -73z"/>
<path d="M5065 5713 c-558 -50 -991 -241 -1272 -562 -264 -301 -409 -705 -430
-1199 l-6 -145 154 6 c836 33 1477 482 1728 1211 67 192 111 442 111 621 l0
75 -122 -2 c-68 -1 -141 -3 -163 -5z"/>
</g>
</svg>
